<?xml version="1.0" encoding="UTF-8" ?>
<!DOCTYPE svg PUBLIC "-//W3C//DTD SVG 1.1//EN" "http://www.w3.org/Graphics/SVG/1.1/DTD/svg11.dtd">
<svg width="280pt" height="142pt" viewBox="0 0 280 142" version="1.1" xmlns="http://www.w3.org/2000/svg">
<g id="#fefefeff">
</g>
<g id="#3b3132ff">
<path fill="#3b3132" opacity="1.00" d=" M 130.42 6.58 C 133.41 10.58 133.80 16.08 131.55 20.52 C 131.15 20.76 130.36 21.25 129.96 21.50 C 130.72 16.54 130.46 11.56 130.42 6.58 Z" />
<path fill="#3b3132" opacity="1.00" d=" M 118.46 8.21 C 122.47 10.90 124.01 15.82 123.96 20.45 C 123.52 20.30 122.64 19.98 122.20 19.82 C 121.05 15.91 119.30 12.19 118.46 8.21 Z" />
<path fill="#3b3132" opacity="1.00" d=" M 135.62 8.59 C 138.12 12.59 138.48 18.86 134.22 21.79 C 134.98 17.42 135.27 13.00 135.62 8.59 Z" />
<path fill="#3b3132" opacity="1.00" d=" M 122.70 9.42 C 126.21 11.65 128.98 16.07 127.12 20.26 C 125.24 16.84 123.75 13.17 122.70 9.42 Z" />
<path fill="#3b3132" opacity="1.00" d=" M 137.61 20.52 C 138.83 16.94 139.64 13.19 141.30 9.79 C 142.49 13.71 141.90 18.80 137.61 20.52 Z" />
<path fill="#3b3132" opacity="1.00" d=" M 114.44 11.78 C 117.49 12.16 118.92 14.58 119.21 17.42 C 116.09 17.58 115.60 13.92 114.44 11.78 Z" />
<path fill="#3b3132" opacity="1.00" d=" M 139.87 24.39 C 142.17 20.28 143.78 15.87 145.77 11.61 C 146.45 16.37 145.23 22.99 139.87 24.39 Z" />
<path fill="#3b3132" opacity="1.00" d=" M 109.24 12.41 C 113.12 15.22 116.08 19.24 118.22 23.48 C 116.90 22.94 115.63 22.27 114.42 21.51 C 114.35 22.23 114.21 23.68 114.14 24.40 C 112.15 22.03 109.93 19.89 107.50 17.98 C 108.94 17.99 110.38 18.03 111.83 18.09 C 110.56 16.40 109.68 14.47 109.24 12.41 Z" />
<path fill="#3b3132" opacity="1.00" d=" M 144.62 23.63 C 146.32 20.79 148.09 17.99 150.00 15.28 C 150.76 19.08 148.69 23.12 144.62 23.63 Z" />
<path fill="#3b3132" opacity="1.00" d=" M 144.65 29.26 C 145.93 24.53 149.91 20.82 153.73 17.99 C 152.42 22.80 148.94 26.82 144.65 29.26 Z" />
<path fill="#3b3132" opacity="1.00" d=" M 103.80 22.11 C 104.61 21.95 106.22 21.61 107.02 21.45 C 108.41 22.88 109.77 24.40 110.37 26.35 C 107.69 25.80 105.76 23.85 103.80 22.11 Z" />
<path fill="#3b3132" opacity="1.00" d=" M 149.44 30.81 C 151.03 27.20 155.53 26.20 158.44 23.81 C 157.48 28.07 153.47 30.26 149.44 30.81 Z" />
<path fill="#3b3132" opacity="1.00" d=" M 98.55 29.07 C 98.59 27.43 100.74 27.05 102.04 27.13 C 105.84 27.33 109.19 29.92 113.04 29.77 C 115.25 29.74 117.01 28.34 118.87 27.34 C 118.89 28.58 118.91 29.82 118.94 31.05 C 112.76 32.31 106.65 30.66 100.71 29.08 C 101.59 32.28 102.44 36.16 106.15 37.07 C 105.81 39.97 107.67 42.34 108.57 44.95 C 109.51 47.48 111.88 49.01 113.80 50.75 C 116.82 48.88 119.00 45.76 122.36 44.48 C 121.71 48.39 118.24 50.45 114.98 51.99 C 116.63 56.48 118.63 61.12 118.24 66.02 C 117.94 68.02 117.40 69.97 116.97 71.94 C 116.00 72.36 115.03 72.77 114.05 73.17 C 115.16 74.38 116.29 75.58 117.18 76.97 C 113.90 75.97 110.98 74.12 107.72 73.08 C 111.33 76.25 115.98 78.32 120.76 78.77 C 124.15 77.09 124.79 72.81 127.00 70.05 C 131.14 68.11 135.96 67.36 140.46 68.42 C 140.82 70.18 141.15 71.94 141.37 73.73 C 140.17 72.40 139.06 71.00 137.94 69.60 C 134.71 69.93 131.18 69.68 128.29 71.38 C 125.93 73.91 126.25 78.23 122.99 80.00 C 121.86 80.95 120.48 81.60 119.01 81.00 C 114.37 79.93 110.13 77.50 106.45 74.51 C 106.43 73.46 106.42 72.41 106.40 71.37 C 109.09 71.49 111.69 72.17 114.31 72.73 C 115.25 70.29 116.34 67.81 116.54 65.18 C 115.26 60.32 114.66 55.22 112.29 50.72 C 110.21 48.82 107.75 47.19 106.41 44.63 C 103.90 39.39 100.32 34.64 98.55 29.07 Z" />
<path fill="#3b3132" opacity="1.00" d=" M 150.45 33.94 C 152.76 30.55 157.04 29.13 160.28 26.73 C 158.77 30.94 154.73 33.37 150.45 33.94 Z" />
<path fill="#3b3132" opacity="1.00" d=" M 154.64 33.69 C 157.46 32.28 160.17 30.07 163.53 30.42 C 159.49 34.07 154.61 36.87 149.33 38.26 C 149.82 35.61 152.67 34.97 154.64 33.69 Z" />
<path fill="#3b3132" opacity="1.00" d=" M 153.39 39.09 C 156.28 36.37 160.42 35.92 164.07 34.82 C 161.92 38.56 157.43 39.71 153.39 39.09 Z" />
<path fill="#3b3132" opacity="1.00" d=" M 156.38 40.24 C 159.87 39.52 162.96 37.57 166.46 36.90 C 162.99 41.43 157.00 43.35 151.44 42.86 C 152.21 40.76 154.57 40.79 156.38 40.24 Z" />
<path fill="#3b3132" opacity="1.00" d=" M 94.49 41.05 C 97.12 39.00 102.06 37.89 104.13 41.25 C 100.92 41.51 97.67 41.67 94.49 41.05 Z" />
<path fill="#3b3132" opacity="1.00" d=" M 136.23 41.18 C 140.96 39.85 142.30 45.17 141.53 48.74 C 139.75 48.95 137.99 48.64 136.29 48.12 C 137.52 47.42 138.77 46.74 140.02 46.08 C 138.89 44.34 137.55 42.77 136.23 41.18 Z" />
<path fill="#3b3132" opacity="1.00" d=" M 95.48 45.14 C 96.55 42.03 99.90 41.91 102.65 41.52 C 103.00 45.36 97.95 44.14 95.48 45.14 Z" />
<path fill="#3b3132" opacity="1.00" d=" M 154.34 46.26 C 154.79 44.91 155.71 44.19 157.07 44.10 C 159.93 43.75 162.83 43.65 165.71 43.78 C 162.73 46.84 158.25 46.60 154.34 46.26 Z" />
<path fill="#3b3132" opacity="1.00" d=" M 94.75 49.80 C 96.70 46.58 100.41 45.72 103.86 45.14 C 104.22 45.62 104.94 46.57 105.30 47.05 C 101.78 47.95 98.26 48.83 94.75 49.80 Z" />
<path fill="#3b3132" opacity="1.00" d=" M 97.48 54.39 C 98.29 50.32 102.49 48.20 106.38 48.91 C 104.32 51.83 100.39 52.52 97.48 54.39 Z" />
<path fill="#3b3132" opacity="1.00" d=" M 152.72 49.75 C 157.23 49.20 161.77 49.51 166.29 49.32 C 162.53 52.16 156.24 53.41 152.72 49.75 Z" />
<path fill="#3b3132" opacity="1.00" d=" M 98.66 59.77 C 99.56 55.51 103.43 53.38 107.44 52.90 C 107.33 53.36 107.11 54.28 107.00 54.75 C 104.23 56.44 101.45 58.12 98.66 59.77 Z" />
<path fill="#3b3132" opacity="1.00" d=" M 154.05 53.67 C 157.77 53.57 161.52 54.04 165.02 55.33 C 161.66 57.28 156.36 57.06 154.05 53.67 Z" />
<path fill="#3b3132" opacity="1.00" d=" M 102.62 65.82 C 101.92 60.89 105.73 55.86 110.77 55.55 C 107.99 58.94 105.12 62.22 102.62 65.82 Z" />
<path fill="#3b3132" opacity="1.00" d=" M 148.77 57.93 C 152.67 57.97 156.57 58.25 160.46 58.47 C 159.05 60.67 156.26 60.49 153.98 60.46 C 152.02 60.29 149.29 60.37 148.77 57.93 Z" />
<path fill="#3b3132" opacity="1.00" d=" M 109.47 59.61 C 110.18 59.51 111.60 59.31 112.31 59.22 C 111.62 61.60 110.84 63.96 109.98 66.28 C 108.29 64.32 108.82 61.85 109.47 59.61 Z" />
<path fill="#3b3132" opacity="1.00" d=" M 152.52 62.60 C 155.34 63.73 158.01 65.25 160.97 66.05 C 161.99 66.29 162.74 66.88 163.22 67.82 C 159.20 68.37 153.39 67.32 152.52 62.60 Z" />
<path fill="#3b3132" opacity="1.00" d=" M 148.58 65.98 C 151.53 66.81 154.14 68.45 156.60 70.22 C 153.30 72.08 149.44 69.31 148.58 65.98 Z" />
<path fill="#3b3132" opacity="1.00" d=" M 145.06 69.88 C 145.84 68.74 146.63 67.61 147.48 66.52 C 147.53 67.36 147.64 69.03 147.69 69.86 C 151.14 71.69 152.39 75.46 153.59 78.91 C 148.92 81.60 143.42 81.14 138.64 79.01 C 138.99 77.49 139.41 75.99 139.88 74.50 C 143.13 74.93 146.41 75.03 149.66 75.40 C 146.24 76.10 142.74 76.27 139.33 77.02 C 142.55 80.00 147.29 80.28 151.35 79.12 C 151.01 75.09 147.53 72.67 145.06 69.88 Z" />
<path fill="#3b3132" opacity="1.00" d=" M 51.00 87.23 C 51.72 87.24 53.16 87.27 53.88 87.28 C 53.95 89.81 53.99 92.35 54.05 94.88 C 57.49 94.85 60.93 94.85 64.37 94.87 C 64.41 92.34 64.43 89.82 64.43 87.30 C 65.14 87.28 66.57 87.23 67.28 87.21 C 67.44 93.36 67.45 99.52 67.28 105.67 C 66.58 105.45 65.16 105.00 64.45 104.77 C 64.32 102.18 64.41 99.59 64.40 97.00 C 60.93 96.96 57.46 96.97 53.99 96.98 C 53.98 99.76 53.97 102.55 53.95 105.33 C 53.21 105.33 51.73 105.34 50.99 105.34 C 51.00 99.30 50.99 93.27 51.00 87.23 Z" />
<path fill="#3b3132" opacity="1.00" d=" M 72.16 87.29 C 76.00 87.35 79.86 87.07 83.69 87.40 C 83.88 87.86 84.28 88.77 84.47 89.23 C 81.36 89.34 78.24 89.33 75.12 89.31 C 75.11 91.18 75.09 93.05 75.07 94.93 C 78.08 94.97 81.10 94.92 84.10 95.14 C 82.82 98.57 77.95 96.39 75.09 97.03 C 75.10 99.11 75.10 101.20 75.09 103.29 C 78.44 103.31 81.78 103.25 85.12 103.49 C 84.88 104.77 84.15 105.38 82.92 105.32 C 79.33 105.46 75.73 105.32 72.13 105.29 C 72.14 99.29 72.11 93.29 72.16 87.29 Z" />
<path fill="#3b3132" opacity="1.00" d=" M 88.21 87.52 C 93.05 87.26 98.36 86.60 102.71 89.22 C 107.66 92.25 107.18 100.43 102.34 103.32 C 98.11 105.89 92.91 105.45 88.17 105.31 C 88.18 99.38 88.13 93.45 88.21 87.52 M 91.19 89.13 C 91.04 93.94 91.11 98.76 91.11 103.58 C 93.88 103.47 96.80 103.58 99.38 102.39 C 103.85 100.51 104.61 93.19 100.40 90.63 C 97.67 88.89 94.28 89.23 91.19 89.13 Z" />
<path fill="#3b3132" opacity="1.00" d=" M 111.83 89.86 C 115.98 86.73 121.66 86.66 126.48 88.05 C 125.40 90.29 122.86 89.19 120.96 89.26 C 117.65 89.04 113.84 90.22 112.30 93.39 C 111.25 96.24 111.66 99.92 114.30 101.77 C 117.02 103.86 120.63 103.48 123.82 103.11 C 123.83 101.46 123.84 99.81 123.86 98.16 C 122.08 97.73 119.36 98.34 118.87 95.98 C 121.49 95.86 124.12 95.86 126.74 95.89 C 126.72 98.83 126.73 101.77 126.68 104.72 C 121.77 105.55 116.09 106.30 111.83 103.11 C 107.66 100.01 107.69 92.98 111.83 89.86 Z" />
<path fill="#3b3132" opacity="1.00" d=" M 130.96 87.28 C 134.81 87.37 138.69 87.02 142.53 87.46 C 142.72 87.90 143.10 88.77 143.29 89.20 C 140.16 89.34 137.04 89.32 133.91 89.30 C 133.88 91.18 133.86 93.07 133.85 94.95 C 136.66 94.98 139.48 94.98 142.30 94.99 C 142.30 95.48 142.28 96.47 142.28 96.96 C 139.47 96.97 136.67 96.97 133.86 97.00 C 133.86 99.10 133.87 101.19 133.89 103.29 C 136.83 103.34 139.80 103.12 142.73 103.47 C 142.97 103.90 143.46 104.77 143.70 105.20 C 139.44 105.45 135.17 105.35 130.90 105.33 C 130.91 99.31 130.83 93.29 130.96 87.28 Z" />
<path fill="#3b3132" opacity="1.00" d=" M 147.01 87.24 C 147.71 87.25 149.12 87.26 149.82 87.27 C 149.89 89.80 149.92 92.33 149.97 94.86 C 153.41 94.85 156.86 94.86 160.30 94.86 C 160.34 92.34 160.35 89.83 160.36 87.31 C 161.07 87.29 162.50 87.26 163.21 87.24 C 163.34 93.31 163.27 99.38 163.27 105.45 C 162.52 105.37 161.03 105.20 160.28 105.12 C 160.35 102.41 160.36 99.70 160.33 97.00 C 156.86 96.96 153.38 96.97 149.91 96.99 C 149.89 99.76 149.89 102.53 149.90 105.30 C 149.17 105.31 147.70 105.34 146.97 105.35 C 146.96 99.31 146.91 93.27 147.01 87.24 Z" />
<path fill="#3b3132" opacity="1.00" d=" M 173.42 87.59 C 177.07 86.49 181.41 87.06 184.29 89.69 C 187.11 92.57 187.59 97.19 185.74 100.72 C 182.34 107.13 171.58 107.21 168.01 100.93 C 165.24 96.07 167.87 89.00 173.42 87.59 M 174.44 89.43 C 168.38 91.40 168.48 101.62 174.75 103.25 C 179.60 105.09 184.64 100.29 183.77 95.37 C 183.53 90.89 178.59 87.76 174.44 89.43 Z" />
<path fill="#3b3132" opacity="1.00" d=" M 197.40 87.63 C 200.72 86.97 204.61 86.58 207.35 89.00 C 203.75 90.04 199.82 88.37 196.37 90.17 C 191.74 91.97 191.03 99.15 195.13 101.89 C 197.87 103.81 201.39 103.55 204.52 103.02 C 204.51 101.44 204.51 99.86 204.53 98.29 C 202.71 97.80 200.05 98.31 199.53 95.94 C 202.12 95.85 204.73 95.85 207.33 95.87 C 207.35 98.85 207.35 101.83 207.26 104.81 C 202.86 105.38 198.05 106.17 193.94 104.03 C 190.31 102.39 188.51 97.85 189.69 94.11 C 190.53 90.54 193.97 88.27 197.40 87.63 Z" />
</g>
<g id="#df5c64ff">
<path fill="#df5c64" opacity="1.00" d=" M 118.79 38.76 C 120.02 37.15 121.79 36.28 123.77 35.96 C 123.92 37.40 124.04 38.85 124.14 40.31 C 122.35 39.83 120.56 39.31 118.79 38.76 Z" />
<path fill="#df5c64" opacity="1.00" d=" M 176.48 99.09 C 177.28 97.97 179.50 99.12 178.49 100.37 C 177.70 101.52 175.54 100.29 176.48 99.09 Z" />
<path fill="#df5c64" opacity="1.00" d=" M 163.53 109.37 C 164.66 108.11 165.06 106.39 165.80 104.89 C 165.83 106.32 165.86 107.74 165.89 109.17 C 168.56 109.31 171.23 109.44 173.91 109.57 C 173.90 110.07 173.88 111.06 173.87 111.56 C 171.23 111.59 168.58 111.70 165.94 111.88 C 166.42 114.34 167.02 116.78 167.79 119.17 C 169.25 118.22 170.68 117.22 172.08 116.18 C 172.61 116.41 173.68 116.88 174.22 117.12 C 172.34 119.01 170.22 121.42 167.25 120.95 C 164.33 119.30 164.57 115.53 163.73 112.71 C 162.23 112.28 160.73 111.85 159.25 111.37 C 160.67 110.69 162.14 110.11 163.53 109.37 Z" />
<path fill="#df5c64" opacity="1.00" d=" M 190.40 114.70 C 191.64 111.73 192.63 108.52 194.99 106.21 C 195.45 110.90 193.30 115.16 191.53 119.34 C 187.62 116.74 186.06 111.98 184.54 107.77 C 187.98 108.53 189.26 111.76 190.40 114.70 Z" />
<path fill="#df5c64" opacity="1.00" d=" M 202.26 106.88 C 204.84 105.40 207.74 106.86 210.16 107.96 C 210.09 108.61 209.95 109.92 209.89 110.57 C 206.65 110.92 203.41 111.33 200.22 111.97 C 201.32 113.34 202.22 115.28 204.17 115.57 C 206.99 115.61 209.69 114.65 212.47 114.32 C 209.99 115.98 207.11 117.20 204.09 117.26 C 201.11 117.24 198.54 114.80 197.95 111.95 C 198.51 109.74 200.52 108.20 202.26 106.88 M 203.21 108.15 C 202.18 108.01 200.49 109.61 202.14 110.14 C 203.30 110.50 204.36 110.34 205.34 109.65 C 206.22 108.42 204.06 107.85 203.21 108.15 Z" />
<path fill="#df5c64" opacity="1.00" d=" M 178.03 109.19 C 181.63 111.48 180.27 116.40 180.94 119.99 C 179.91 119.66 178.88 119.34 177.86 119.01 C 177.85 115.74 177.79 112.46 178.03 109.19 Z" />
<path fill="#df5c64" opacity="1.00" d=" M 145.50 114.17 C 147.78 111.43 152.19 110.52 154.98 113.05 C 157.95 114.92 158.15 118.69 158.34 121.84 C 154.62 121.88 150.80 122.45 147.22 121.09 C 147.25 117.71 150.34 116.16 152.77 114.52 C 152.50 114.26 151.97 113.76 151.70 113.51 C 149.65 113.85 147.58 114.13 145.50 114.17 M 151.51 117.45 C 149.91 117.68 150.48 119.98 149.99 121.09 C 151.75 120.42 153.47 119.65 155.13 118.77 C 154.02 118.09 152.94 116.72 151.51 117.45 Z" />
<path fill="#df5c64" opacity="1.00" d=" M 132.24 117.19 C 133.97 114.28 137.27 112.12 140.74 113.27 C 142.93 113.42 143.53 115.57 144.15 117.29 C 140.63 117.71 137.09 118.07 133.60 118.79 C 134.95 120.06 135.95 122.17 138.05 122.23 C 140.83 122.29 143.53 121.46 146.29 121.19 C 142.74 123.07 137.89 125.65 134.20 122.74 C 132.73 121.43 130.39 119.11 132.24 117.19 Z" />
<path fill="#df5c64" opacity="1.00" d=" M 122.48 118.34 C 124.27 116.39 126.32 113.79 129.33 114.68 C 127.69 116.25 125.83 117.61 124.42 119.42 C 122.82 121.50 123.43 124.81 121.08 126.37 C 120.21 122.57 119.75 118.67 119.98 114.77 C 120.84 115.94 121.67 117.13 122.48 118.34 Z" />
<path fill="#df5c64" opacity="1.00" d=" M 104.18 119.54 C 107.44 116.66 111.40 114.58 115.89 115.17 C 115.96 115.84 116.10 117.17 116.17 117.83 C 112.48 117.16 108.01 116.98 106.02 120.90 C 107.25 122.13 108.12 124.18 110.07 124.35 C 112.48 124.55 114.90 124.29 117.31 124.32 C 114.25 126.10 110.38 127.94 106.90 126.20 C 104.50 124.87 104.29 121.97 104.18 119.54 Z" />
</g>
</svg>
