<?xml version="1.0" encoding="UTF-8" ?>
<!DOCTYPE svg PUBLIC "-//W3C//DTD SVG 1.1//EN" "http://www.w3.org/Graphics/SVG/1.1/DTD/svg11.dtd">
<svg width="30px" height="150px" viewBox="0 0 62 110" version="1.1" xmlns="http://www.w3.org/2000/svg">
<g id="#fefefeff">
</g>
<g id="#c8c8c8ff">
<path fill="#c8c8c8" opacity="1.00" d=" M 29.17 0.00 L 32.58 0.00 C 34.15 4.32 34.74 9.04 37.22 13.01 C 40.30 18.05 45.17 21.59 48.93 26.08 C 54.74 33.02 60.16 40.94 61.12 50.19 C 62.58 58.63 58.90 67.26 62.00 75.51 L 62.00 91.44 C 61.49 96.45 59.95 101.30 57.70 105.79 C 56.94 105.93 55.43 106.22 54.67 106.36 C 56.06 100.58 59.01 95.13 58.88 89.06 C 58.90 83.18 59.21 76.89 56.30 71.56 C 53.50 66.53 48.53 63.37 44.07 59.98 C 41.02 57.62 37.82 55.43 34.34 53.76 C 33.27 71.16 34.07 88.64 34.02 106.06 C 34.25 108.95 30.94 110.39 30.67 113.13 C 30.31 115.24 30.10 117.37 29.79 119.48 C 28.24 120.02 26.71 120.56 25.17 121.11 C 23.60 128.19 15.49 130.99 9.01 130.36 C 5.11 130.01 2.16 127.18 0.00 124.15 L 0.00 111.35 C 2.68 105.83 7.38 101.40 12.76 98.54 C 17.75 95.87 23.58 96.83 28.94 97.48 C 29.20 94.66 29.38 91.83 29.37 89.00 C 29.09 59.34 29.51 29.66 29.17 0.00 M 33.50 24.86 C 34.83 32.31 37.32 39.83 42.46 45.56 C 47.71 51.53 53.60 57.01 57.74 63.88 C 57.75 58.60 57.73 53.13 55.58 48.20 C 51.30 38.05 42.52 30.72 33.50 24.86 Z" />
</g>
</svg>
