<?xml version="1.0" encoding="UTF-8" ?>
<!DOCTYPE svg PUBLIC "-//W3C//DTD SVG 1.1//EN" "http://www.w3.org/Graphics/SVG/1.1/DTD/svg11.dtd">
<svg width="307pt" height="155pt" viewBox="0 0 307 155" version="1.1" xmlns="http://www.w3.org/2000/svg">
<g id="#fefffeff">
</g>
<g id="#ab3a2bff">
<path fill="#ab3a2b" opacity="1.00" d=" M 158.54 0.00 L 161.78 0.00 C 162.88 5.39 163.59 11.27 167.54 15.47 C 173.94 22.38 180.96 28.95 185.50 37.33 C 189.59 44.76 190.98 53.49 189.79 61.87 C 189.01 66.65 189.65 71.46 190.82 76.11 C 192.68 83.97 191.26 92.17 188.75 99.72 C 187.91 102.42 186.20 104.71 184.32 106.77 C 185.42 100.78 188.06 95.14 188.48 89.01 C 188.93 83.29 188.53 77.26 185.84 72.08 C 183.76 68.04 180.24 65.03 176.68 62.33 C 171.95 58.81 167.13 55.42 162.31 52.02 C 162.28 65.35 162.29 78.67 162.30 92.00 C 162.23 97.67 163.08 103.55 161.11 109.02 C 160.03 112.11 159.29 115.31 158.65 118.52 C 153.58 120.70 152.06 127.11 146.66 128.64 C 141.81 130.19 135.90 130.62 131.64 127.36 C 128.01 124.62 127.13 119.54 128.07 115.31 C 129.56 107.94 135.51 102.31 141.93 98.91 C 147.02 96.09 153.01 96.98 158.49 97.84 C 158.79 65.23 158.65 32.61 158.54 0.00 M 162.19 24.70 C 162.89 30.03 164.30 35.33 167.05 39.99 C 169.80 45.02 174.10 48.89 177.96 53.03 C 181.20 56.47 183.93 60.32 186.78 64.07 C 186.99 57.96 186.83 51.57 183.88 46.04 C 179.06 36.96 171.22 29.54 162.19 24.70 Z" />
<path fill="#ab3a2b" opacity="1.00" d=" M 194.15 63.26 C 200.58 60.71 206.92 57.44 213.91 56.84 C 213.12 60.40 212.13 63.91 211.39 67.48 C 209.51 67.60 207.63 67.71 205.76 67.83 C 205.74 69.93 205.74 72.03 205.75 74.13 C 207.76 74.24 209.78 74.34 211.79 74.45 C 211.78 76.80 211.78 79.14 211.77 81.49 C 209.76 81.59 207.74 81.70 205.73 81.82 C 205.71 83.88 205.72 85.95 205.73 88.02 C 207.73 88.14 209.74 88.26 211.75 88.39 C 211.79 90.62 211.83 92.86 211.89 95.09 C 209.87 95.23 207.86 95.35 205.85 95.46 C 205.76 97.68 205.71 99.90 205.66 102.12 C 207.70 102.24 209.74 102.35 211.78 102.46 C 211.79 104.25 211.81 106.05 211.84 107.84 C 209.47 107.99 207.11 108.11 204.74 108.24 C 204.76 110.36 204.78 112.48 204.82 114.60 C 207.00 114.81 209.18 115.01 211.36 115.28 C 213.54 118.61 218.43 120.02 218.31 124.61 C 210.26 124.67 202.20 124.63 194.15 124.62 C 194.22 123.30 194.28 121.97 194.36 120.65 C 196.23 119.82 198.31 119.26 199.91 117.92 C 201.59 114.55 201.11 110.64 201.20 107.00 C 200.88 94.03 201.57 81.03 200.79 68.07 C 198.68 67.79 196.56 67.55 194.45 67.31 C 194.35 65.96 194.25 64.61 194.15 63.26 Z" />
<path fill="#ab3a2b" opacity="1.00" d=" M 7.18 63.26 C 13.00 62.73 18.85 62.87 24.67 63.22 C 25.96 66.23 27.72 69.13 28.24 72.40 C 27.99 75.46 26.65 78.30 25.89 81.25 C 28.04 81.79 30.26 82.12 32.30 83.00 C 34.05 84.46 34.85 86.72 35.99 88.65 C 34.31 88.96 32.62 89.27 30.94 89.58 C 30.86 91.68 30.78 93.79 30.69 95.90 C 33.43 95.85 36.17 95.77 38.90 95.66 C 39.65 97.90 40.42 100.13 41.19 102.36 C 39.15 102.62 37.11 102.88 35.08 103.14 C 35.07 105.33 35.07 107.53 35.08 109.74 C 36.68 109.55 38.28 109.40 39.86 109.07 C 41.08 107.72 41.82 106.04 42.65 104.44 C 43.25 105.66 43.86 106.88 44.47 108.09 C 51.83 93.31 58.85 78.35 65.20 63.11 C 70.54 62.88 75.88 62.88 81.22 63.03 C 81.20 64.21 81.18 65.39 81.15 66.58 C 76.22 69.25 70.13 72.29 69.55 78.60 C 71.34 79.01 73.14 79.40 74.94 79.78 C 75.27 83.43 75.62 87.08 76.01 90.72 C 74.05 90.96 72.09 91.20 70.14 91.45 C 70.10 93.52 70.05 95.60 70.00 97.68 C 72.41 97.85 74.81 98.01 77.22 98.18 C 77.28 100.05 77.40 101.92 77.31 103.79 C 77.36 106.93 72.93 108.42 73.58 111.63 C 76.97 115.41 81.26 118.29 85.60 120.88 C 85.73 122.10 85.87 123.33 86.00 124.55 C 77.69 124.71 69.37 124.67 61.05 124.58 C 60.97 123.51 60.89 122.44 60.81 121.38 C 63.43 119.56 67.80 118.13 67.09 114.13 C 65.99 103.41 65.27 92.63 63.86 81.93 C 54.68 95.56 49.23 111.18 41.63 125.65 C 41.05 125.69 39.89 125.76 39.31 125.80 C 32.64 110.16 25.97 94.53 19.32 78.88 C 18.16 87.23 17.43 95.64 17.40 104.07 C 17.51 109.03 14.50 113.27 13.84 118.10 C 16.94 118.50 20.26 118.44 23.11 119.93 C 24.72 120.88 24.22 123.05 24.55 124.62 C 16.36 124.67 8.18 124.75 0.00 124.39 L 0.00 121.69 C 2.92 118.69 6.37 115.85 7.59 111.66 C 10.96 101.44 11.86 90.64 13.18 80.02 C 13.46 76.92 14.05 73.75 13.46 70.65 C 11.32 68.20 8.20 66.56 7.18 63.26 Z" />
<path fill="#ab3a2b" opacity="1.00" d=" M 100.66 80.66 C 107.49 77.32 117.14 77.47 122.34 83.67 C 125.88 87.63 127.05 93.03 127.28 98.19 C 123.05 97.84 118.81 97.10 114.56 97.60 C 111.61 98.07 108.92 96.50 106.06 96.21 C 102.93 97.26 99.81 98.45 96.44 98.40 C 96.32 99.94 96.20 101.49 96.08 103.04 C 94.77 103.22 93.47 103.40 92.16 103.57 C 92.11 105.75 92.05 107.94 92.00 110.12 C 95.33 110.22 99.02 110.22 101.10 113.26 C 99.35 115.79 98.87 118.80 98.94 121.82 C 100.94 121.73 102.93 121.63 104.92 121.48 C 105.53 120.47 106.29 119.60 107.19 118.89 C 109.72 119.06 112.21 119.99 114.75 119.64 C 117.13 118.92 119.29 117.66 121.54 116.63 C 122.24 114.68 122.57 112.49 123.91 110.85 C 125.11 109.96 126.50 109.39 127.84 108.75 C 127.69 110.83 128.45 113.24 127.09 115.05 C 120.78 123.34 109.26 129.56 98.98 124.96 C 92.06 121.34 87.24 113.88 87.11 106.03 C 86.34 95.93 92.06 85.81 100.66 80.66 M 104.26 86.31 C 100.92 87.31 99.31 90.63 97.71 93.42 C 104.35 93.68 110.99 93.58 117.63 93.54 C 118.46 90.08 118.89 86.55 118.91 83.00 C 113.91 83.49 109.04 84.84 104.26 86.31 Z" />
<path fill="#ab3a2b" opacity="1.00" d=" M 233.35 80.37 C 238.49 78.06 244.74 77.83 249.93 80.08 C 256.54 83.42 259.14 91.19 259.36 98.16 C 257.23 97.97 254.81 98.39 253.06 96.89 C 251.81 96.23 250.66 94.99 249.13 95.22 C 246.85 95.67 245.23 97.77 242.94 98.15 C 240.44 97.91 238.41 96.15 236.04 95.45 C 233.34 96.28 230.97 97.89 228.44 99.11 C 228.80 101.38 229.20 103.65 229.60 105.92 C 228.12 106.05 226.64 106.17 225.16 106.30 C 225.10 108.45 225.04 110.60 224.99 112.75 C 227.55 112.88 230.16 112.79 232.68 113.36 C 235.32 115.25 234.24 119.06 234.60 121.84 C 236.93 121.68 239.47 121.94 241.48 120.53 C 244.92 118.29 248.92 117.33 252.69 115.87 C 254.51 114.28 255.11 111.68 256.96 110.09 C 258.21 109.55 259.54 109.26 260.86 108.90 C 260.59 111.06 260.92 113.58 259.24 115.26 C 254.05 121.06 247.23 126.61 239.01 126.46 C 231.23 127.13 224.45 121.33 221.33 114.63 C 216.19 102.36 221.45 86.58 233.35 80.37 M 237.65 85.91 C 233.79 86.40 231.67 89.96 230.21 93.17 C 236.31 93.67 242.43 93.58 248.53 93.23 C 249.94 90.00 250.88 86.58 250.97 83.04 C 246.39 83.30 242.17 85.25 237.65 85.91 Z" />
<path fill="#ab3a2b" opacity="1.00" d=" M 259.67 79.77 C 265.35 79.52 271.04 79.49 276.72 79.78 C 276.93 85.42 272.23 89.29 271.62 94.67 C 274.21 95.02 276.80 95.35 279.40 95.68 C 279.99 97.02 280.58 98.36 281.18 99.70 C 279.37 99.95 277.56 100.19 275.75 100.43 C 275.77 102.67 275.79 104.90 275.83 107.14 C 278.55 106.78 281.27 106.38 283.97 105.84 C 284.28 107.36 284.59 108.87 284.92 110.38 C 283.31 110.65 281.70 110.91 280.10 111.19 C 280.08 113.24 280.07 115.30 280.06 117.35 C 282.19 117.33 284.32 117.31 286.46 117.28 C 286.73 109.52 288.90 101.98 291.78 94.82 C 292.63 92.39 295.28 91.57 297.26 90.30 C 297.21 88.70 297.15 87.09 297.09 85.49 C 293.48 85.03 289.87 84.54 286.28 83.97 C 286.22 82.60 286.17 81.24 286.12 79.87 C 293.07 79.46 300.04 79.55 307.00 79.63 L 307.00 83.00 C 304.63 85.27 301.84 87.27 300.35 90.28 C 298.59 93.76 297.53 97.52 296.23 101.18 C 293.17 110.31 289.49 119.22 286.47 128.36 C 284.97 132.67 283.67 137.18 280.85 140.85 C 277.91 144.58 272.94 147.01 268.17 146.28 C 264.14 144.21 261.82 140.01 259.02 136.62 C 260.63 135.59 262.21 134.51 263.96 133.74 C 267.09 135.63 268.98 138.91 271.83 141.14 C 273.31 141.69 274.90 141.87 276.45 142.17 C 277.24 137.10 278.91 132.25 280.27 127.32 C 281.21 124.24 279.69 121.22 278.63 118.40 C 274.80 109.19 271.15 99.89 267.22 90.72 C 265.85 87.17 262.75 84.85 259.72 82.78 C 259.71 82.03 259.69 80.52 259.67 79.77 Z" />
</g>
</svg>
