<?xml version="1.0" encoding="UTF-8"?>
<svg xmlns="http://www.w3.org/2000/svg" xmlns:xlink="http://www.w3.org/1999/xlink" width="1399pt" height="500pt" viewBox="0 0 1399 500" version="1.1">
<g id="surface1">
<path style=" stroke:none;fill-rule:nonzero;fill:rgb(47.843137%,14.509804%,14.117647%);fill-opacity:1;" d="M 382.675781 3.210938 C 385.519531 2.894531 388.390625 2.628906 391.238281 2.339844 C 391.625 16.242188 394.757812 31.058594 405.058594 41.121094 C 427.492188 63.851562 451.757812 88.707031 457.402344 121.5 C 460.96875 137.113281 456.894531 152.894531 456.242188 168.507812 C 458.777344 180.597656 462.804688 192.589844 462.273438 205.140625 C 461.695312 221.621094 457.664062 238.007812 450.960938 253.066406 C 449.898438 256.46875 446.933594 258.324219 443.605469 259.050781 C 448.835938 243.097656 455.90625 227.195312 455.132812 209.992188 C 456.484375 190.417969 448.886719 170.054688 432.964844 158.035156 C 419.433594 148.191406 406.601562 136.96875 391.550781 129.464844 C 391.238281 175.023438 391.308594 220.582031 391.527344 266.144531 C 389.089844 266.820312 386.65625 267.496094 384.21875 268.195312 C 384.289062 275.433594 384.265625 282.648438 384.289062 289.890625 C 379.730469 291.433594 375.050781 292.617188 370.277344 293.292969 C 369.554688 297.199219 369.699219 301.519531 367.40625 304.945312 C 356.070312 313.753906 340.777344 317.496094 326.714844 314.332031 C 320.035156 311.679688 313.253906 307.359375 310.648438 300.289062 C 307.707031 293.484375 308.140625 285.957031 308.191406 278.714844 C 297.023438 289.960938 285.492188 302.363281 269.429688 306.152344 C 258.261719 308.324219 245.574219 308.6875 235.707031 302.125 C 224.105469 294.328125 214.675781 282.625 211.539062 268.796875 C 208.546875 253.304688 210.089844 236.632812 218.316406 222.902344 C 226.636719 208.230469 240.289062 194.136719 257.972656 192.496094 C 266.800781 191.941406 276.253906 191.457031 284.3125 195.847656 C 299.964844 203.859375 306.910156 222.539062 306.792969 239.285156 C 300.710938 239.308594 294.707031 238.539062 288.820312 237.066406 C 281.972656 235.109375 275.410156 239.671875 268.632812 238.777344 C 263.808594 234.605469 256.5 232.09375 250.855469 236.222656 C 245.574219 240.589844 238.503906 238.707031 232.234375 239.117188 C 232.304688 243.363281 232.355469 247.636719 232.355469 251.90625 C 228.929688 251.980469 225.480469 252.027344 222.03125 252.050781 C 222.03125 257.746094 221.984375 263.441406 221.910156 269.136719 C 227.21875 269.085938 232.523438 269.015625 237.855469 268.992188 C 240.023438 271.742188 242.21875 274.492188 244.464844 277.21875 C 236.816406 280.742188 239.085938 289.480469 238.941406 296.234375 C 244.148438 296.140625 249.382812 296.113281 254.59375 296.234375 C 254.859375 294.160156 255.390625 289.984375 255.632812 287.910156 C 263.589844 289.71875 271.382812 292.421875 279.605469 292.882812 C 281.320312 290.636719 283.054688 288.367188 284.792969 286.125 C 287.976562 286.101562 291.160156 286.078125 294.367188 286.027344 C 294.007812 277.027344 297.40625 266.820312 307.683594 265.539062 C 308.117188 269.8125 308.457031 274.132812 308.890625 278.425781 C 315.210938 260.570312 329.851562 246.257812 347.21875 239.09375 C 358.722656 234.363281 371.84375 235.761719 382.988281 240.804688 C 382.84375 161.605469 383.375 82.382812 382.675781 3.210938 M 391.1875 61.4375 C 392.300781 76.980469 397.992188 91.988281 406.53125 104.945312 C 413.453125 115.46875 423.246094 123.550781 431.472656 132.988281 C 438.441406 140.539062 444.011719 149.226562 450.382812 157.289062 C 451.082031 143.605469 451.226562 129.34375 445.195312 116.699219 C 434.101562 92.855469 413.839844 74.226562 391.1875 61.4375 M 270.441406 205.695312 C 265.738281 210.183594 258.789062 207.261719 253.121094 209.21875 C 244.800781 212.332031 238.964844 219.859375 235.828125 227.945312 C 251.578125 228.28125 267.355469 228.28125 283.105469 228.066406 C 286.3125 220.148438 287.300781 211.679688 286.625 203.210938 C 281.246094 203.765625 274.832031 201.714844 270.441406 205.695312 Z M 270.441406 205.695312 "/>
<path style=" stroke:none;fill-rule:nonzero;fill:rgb(47.843137%,14.509804%,14.117647%);fill-opacity:1;" d="M 505.570312 140.949219 C 508.851562 139.453125 512.445312 139.769531 515.917969 140.300781 C 514.324219 148.746094 510.199219 156.5625 510.03125 165.273438 C 505.328125 165.324219 500.648438 165.347656 495.96875 165.46875 C 495.945312 170.921875 495.945312 176.375 495.992188 181.828125 C 500.890625 181.925781 505.8125 181.972656 510.707031 182.046875 C 510.730469 187.691406 510.707031 193.316406 510.660156 198.960938 C 505.714844 199.035156 500.792969 199.105469 495.875 199.25 C 495.875 204.609375 495.898438 209.964844 495.96875 215.347656 C 500.84375 215.417969 505.738281 215.46875 510.636719 215.589844 C 510.660156 221.210938 510.730469 226.859375 510.828125 232.480469 C 505.859375 232.503906 500.867188 232.527344 495.898438 232.648438 C 495.847656 238.222656 495.847656 243.824219 495.898438 249.421875 C 500.867188 249.46875 505.8125 249.542969 510.78125 249.636719 C 510.753906 254.03125 510.707031 258.421875 510.730469 262.835938 C 505.015625 263.078125 499.273438 263.199219 493.558594 263.34375 C 493.652344 268.675781 493.679688 274.011719 493.703125 279.34375 C 499.324219 279.5625 504.964844 279.730469 510.585938 280.140625 C 512.058594 287.8125 518.425781 291.503906 525.542969 293.050781 C 525.566406 296.378906 525.589844 299.734375 525.589844 303.089844 C 506.582031 302.917969 487.574219 302.992188 468.570312 303.015625 C 468.570312 299.710938 468.59375 296.429688 468.59375 293.121094 C 473.007812 291.746094 477.421875 290.324219 481.8125 288.851562 C 487.746094 276.207031 484.753906 261.992188 485.308594 248.550781 C 484.824219 221.089844 486.515625 193.507812 484.296875 166.121094 C 479.230469 165.46875 474.117188 165.203125 469.003906 164.984375 C 468.808594 161.65625 468.617188 158.347656 468.421875 155.042969 C 480.460938 149.445312 493.148438 145.488281 505.570312 140.949219 Z M 505.570312 140.949219 "/>
<path style=" stroke:none;fill-rule:nonzero;fill:rgb(47.843137%,14.509804%,14.117647%);fill-opacity:1;" d="M 1239.683594 149.46875 C 1242.9375 144.5 1249.453125 145.898438 1254.492188 145.96875 C 1256.761719 146.621094 1261.585938 146.089844 1260.234375 149.878906 C 1258.570312 150.3125 1255.289062 151.183594 1253.625 151.617188 C 1253.457031 155.863281 1253.382812 160.136719 1253.285156 164.40625 C 1255.988281 166.335938 1258.714844 168.242188 1261.390625 170.246094 C 1255.941406 171.042969 1250.390625 172.5625 1244.894531 171.453125 C 1235.558594 169.28125 1232.90625 155.597656 1239.683594 149.46875 Z M 1239.683594 149.46875 "/>
<path style=" stroke:none;fill-rule:nonzero;fill:rgb(47.843137%,14.509804%,14.117647%);fill-opacity:1;" d="M 19.054688 154.609375 C 32.515625 154.246094 46 154.175781 59.433594 154.972656 C 63.195312 163.511719 66.839844 172.105469 70.117188 180.863281 C 62.929688 185.304688 63.027344 193.363281 63.4375 200.894531 C 68.816406 201.039062 74.171875 201.230469 79.550781 201.542969 C 81.550781 206.683594 83.675781 211.800781 85.796875 216.917969 C 81.914062 217.328125 78.03125 217.738281 74.148438 218.121094 C 74.027344 223.601562 73.953125 229.054688 73.882812 234.53125 C 80.417969 234.195312 86.929688 233.734375 93.417969 232.867188 C 95.445312 238.539062 97.59375 244.183594 99.546875 249.902344 C 94.480469 250.074219 89.414062 250.21875 84.351562 250.410156 C 84.253906 255.839844 84.207031 261.246094 84.207031 266.699219 C 89.464844 266.820312 94.722656 266.941406 99.980469 266.988281 C 100.4375 262.742188 100.871094 258.496094 101.378906 254.269531 C 103.476562 257.410156 105.625 260.546875 107.796875 263.660156 C 124.101562 227.246094 142.792969 191.941406 157.265625 154.730469 C 170.097656 154.246094 182.957031 154.320312 195.789062 154.488281 C 195.859375 157.578125 195.933594 160.691406 196.003906 163.777344 C 185.078125 166.3125 177.550781 174.855469 169.277344 181.734375 C 168.484375 185.714844 168.386719 189.792969 168.074219 193.847656 C 172.367188 194.136719 176.683594 194.351562 181 194.546875 C 181.582031 203.570312 182.183594 212.621094 183.148438 221.621094 C 178.445312 222.007812 173.742188 222.320312 169.015625 222.683594 C 168.75 227.917969 168.484375 233.15625 168.242188 238.394531 C 174.246094 238.683594 180.253906 238.898438 186.234375 239.308594 C 186.210938 246.257812 186.453125 253.210938 187.5625 260.0625 C 184.039062 260.496094 180.496094 260.90625 176.972656 261.316406 C 177.023438 266.386719 177.046875 271.429688 176.996094 276.496094 C 180.855469 277.074219 184.691406 277.628906 188.527344 278.234375 C 190.214844 287.621094 198.683594 291.3125 206.957031 293.484375 C 206.980469 296.621094 207.027344 299.78125 207.074219 302.945312 C 187.25 303.066406 167.398438 302.992188 147.570312 302.945312 C 147.089844 300.144531 146.605469 297.34375 146.125 294.546875 C 152.417969 291.191406 163.417969 289.40625 162.378906 280.042969 C 159.511719 253.257812 157.292969 226.398438 154.445312 199.589844 C 131.941406 232.527344 118.648438 270.464844 100.222656 305.621094 C 98.871094 305.671875 96.167969 305.765625 94.820312 305.792969 C 83.554688 279.34375 72.386719 252.847656 60.953125 226.472656 C 56.128906 215.710938 52.511719 204.320312 45.902344 194.449219 C 42.933594 219.351562 40.714844 244.472656 42.140625 269.570312 C 32.105469 270.558594 34.492188 280.863281 34.226562 288.03125 C 42.957031 287.402344 51.570312 288.972656 59.289062 293.148438 C 59.144531 296.332031 59.023438 299.515625 58.902344 302.703125 C 39.269531 303.066406 19.609375 303.425781 0 302.414062 L 0 295.101562 C 6.054688 289.792969 13.507812 285.253906 16.328125 277.269531 C 27.136719 248.960938 29.113281 218.414062 32.515625 188.585938 C 33.140625 182.09375 34.203125 175.289062 31.792969 169.015625 C 27.980469 166.820312 23.613281 165.855469 19.417969 164.648438 C 19.273438 161.292969 19.175781 157.964844 19.054688 154.609375 Z M 19.054688 154.609375 "/>
<path style=" stroke:none;fill-rule:nonzero;fill:rgb(47.843137%,14.509804%,14.117647%);fill-opacity:1;" d="M 812.214844 154.5625 C 816.992188 154.511719 821.769531 154.488281 826.542969 154.511719 C 827.074219 158.082031 827.605469 161.679688 828.183594 165.25 C 833.105469 165.15625 838.050781 165.15625 842.992188 165.226562 C 843.257812 161.558594 843.5 157.890625 843.789062 154.222656 C 846.851562 154.269531 849.867188 154.609375 852.859375 155.238281 C 858.914062 168.582031 864.460938 182.167969 869.914062 195.777344 C 866.320312 196.378906 862.75 196.910156 859.179688 197.441406 C 859.15625 202.65625 859.082031 207.867188 859.035156 213.078125 C 865.304688 213.441406 871.699219 213.511719 877.800781 211.65625 C 879.34375 216.433594 881.082031 221.164062 882.792969 225.917969 C 878.28125 226.207031 873.773438 226.472656 869.261719 226.832031 C 869.359375 232.3125 869.308594 237.8125 869.164062 243.292969 C 874.375 243.242188 879.585938 243.242188 884.796875 243.316406 C 885.421875 241.53125 886.699219 238.007812 887.351562 236.222656 C 890.753906 242.589844 893.480469 249.300781 895.867188 256.128906 C 890.632812 256.25 885.398438 256.25 880.1875 256.371094 C 880.042969 261.992188 879.945312 267.617188 879.898438 273.238281 C 885.445312 273.167969 890.996094 273.046875 896.542969 272.851562 C 896.757812 269.425781 896.976562 266 897.242188 262.574219 C 905.5625 260.980469 906.140625 250.554688 909.832031 244.351562 C 924.304688 214.863281 938.246094 185.085938 950.835938 154.707031 C 952.066406 154.679688 954.550781 154.585938 955.804688 154.5625 C 955.925781 158.058594 956.097656 161.582031 956.265625 165.105469 C 961.667969 165.058594 967.070312 165.035156 972.496094 164.9375 C 972.691406 161.4375 972.882812 157.9375 973.078125 154.441406 C 978.722656 154.390625 984.367188 154.367188 990.035156 154.390625 C 989.984375 157.722656 989.914062 161.078125 989.816406 164.429688 C 984.339844 166.070312 977.320312 166.191406 973.632812 171.140625 C 972.980469 176.808594 973.054688 182.527344 973.609375 188.199219 C 977.636719 218.894531 978.457031 250.023438 983.59375 280.550781 C 983.835938 289.71875 993.675781 291 1000.527344 293.242188 C 1000.503906 296.5 1000.453125 299.734375 1000.453125 302.992188 C 980.507812 303.015625 960.558594 302.917969 940.632812 303.066406 C 940.609375 299.710938 940.632812 296.378906 940.753906 293.050781 C 945.796875 291.675781 950.742188 289.792969 954.578125 286.101562 C 958.917969 281.972656 966.179688 285.835938 970.519531 282.117188 C 970.832031 277.195312 970.6875 272.273438 970.714844 267.351562 C 964.972656 267.277344 959.253906 267.230469 953.539062 267.109375 C 953.515625 261.316406 953.492188 255.527344 953.464844 249.734375 C 958.628906 249.589844 963.765625 249.398438 968.929688 248.988281 C 968.710938 243.484375 968.613281 237.984375 968.589844 232.480469 C 963.429688 232.480469 958.265625 232.722656 953.128906 232.191406 C 948.980469 228.933594 950.066406 222.371094 949.246094 217.617188 C 953.585938 217.589844 957.929688 217.589844 962.292969 217.566406 C 962.292969 212.089844 962.269531 206.585938 962.175781 201.109375 C 956.769531 201.160156 951.390625 201.132812 946.039062 200.988281 C 925.4375 234.144531 911.160156 270.558594 893.886719 305.453125 C 892.515625 305.527344 889.714844 305.71875 888.316406 305.792969 C 873.144531 269.59375 856.71875 233.929688 842.101562 197.492188 C 841.160156 197.03125 839.304688 196.140625 838.363281 195.703125 C 836.84375 220.148438 833.320312 244.644531 835.902344 269.183594 C 831.632812 269.402344 827.386719 269.570312 823.144531 269.859375 C 823.191406 275.242188 823.261719 280.648438 823.3125 286.027344 C 828.640625 285.980469 833.996094 285.738281 839.351562 286.195312 C 844.054688 288.464844 848.324219 291.53125 852.714844 294.304688 C 852.328125 297.199219 851.917969 300.074219 851.484375 302.96875 C 832.332031 302.847656 813.179688 303.28125 794.027344 302.773438 C 794.125 299.6875 793.859375 296.550781 794.632812 293.53125 C 800.515625 288.949219 807.441406 284.75 809.660156 277.125 C 818.320312 250.796875 822.683594 223.167969 824.445312 195.558594 C 825.097656 187.574219 827.964844 179.488281 826.011719 171.476562 C 823.769531 165.78125 816.652344 166.070312 811.757812 164.164062 C 811.878906 160.957031 812.046875 157.769531 812.214844 154.5625 Z M 812.214844 154.5625 "/>
<path style=" stroke:none;fill-rule:nonzero;fill:rgb(47.843137%,14.509804%,14.117647%);fill-opacity:1;" d="M 561.457031 197.175781 C 572.433594 191.410156 585.601562 190.902344 597.46875 193.703125 C 616.1875 199.300781 625.980469 220.367188 624.460938 238.828125 C 620.023438 238.949219 615.558594 238.996094 611.121094 239.042969 C 609.386719 231.46875 601.90625 232.117188 595.734375 232.3125 C 593.515625 239.960938 586.132812 239.597656 579.667969 239.09375 C 578.050781 231.25 570.117188 232.457031 563.894531 232.046875 C 563.167969 233.664062 561.722656 236.921875 561 238.5625 C 557.5 238.972656 553.980469 239.382812 550.507812 239.890625 C 551.085938 245.96875 552.386719 251.953125 554.125 257.820312 C 550.363281 258.203125 546.597656 258.496094 542.835938 258.832031 C 542.738281 264.140625 542.59375 269.449219 542.449219 274.757812 C 548.867188 274.902344 555.28125 275.167969 561.675781 275.457031 C 567.078125 281.082031 565.773438 288.949219 565.703125 296.019531 C 570.476562 296.042969 575.300781 296.113281 580.101562 296.140625 C 587.507812 286.292969 601.570312 284.75 613.050781 283.203125 C 612.160156 274.058594 618.984375 264.960938 628.683594 266.046875 C 628.222656 270.414062 630.105469 275.867188 626.269531 279.152344 C 614.835938 291.769531 601.230469 304.296875 583.769531 307.046875 C 574.84375 307.480469 565.171875 308.613281 557.164062 303.765625 C 540.0625 294.59375 528.558594 275.363281 529.402344 255.839844 C 527.90625 232.261719 541.414062 209.167969 561.457031 197.175781 M 586.035156 208.421875 C 572.554688 205.648438 558.082031 214.40625 555.015625 227.945312 C 570.574219 228.332031 586.132812 228.257812 601.667969 227.96875 C 601.015625 225.578125 600.339844 223.167969 599.6875 220.800781 C 600.96875 220.292969 603.546875 219.304688 604.851562 218.824219 C 604.777344 213.660156 604.800781 208.496094 604.800781 203.332031 C 598.074219 203.183594 590.621094 202.390625 586.035156 208.421875 Z M 586.035156 208.421875 "/>
<path style=" stroke:none;fill-rule:nonzero;fill:rgb(47.843137%,14.509804%,14.117647%);fill-opacity:1;" d="M 1004.480469 198.769531 C 1019.847656 196.066406 1035.550781 191.941406 1051.179688 193.148438 C 1051.179688 200.335938 1048.140625 206.828125 1045.632812 213.394531 C 1041.722656 213.5625 1037.839844 213.707031 1034.003906 213.898438 C 1033.910156 219.28125 1033.886719 224.664062 1033.886719 230.042969 C 1038.035156 230.164062 1042.183594 230.285156 1046.355469 230.40625 C 1046.402344 234.75 1046.453125 239.070312 1046.546875 243.386719 C 1041.554688 243.703125 1036.585938 243.917969 1031.640625 244.160156 C 1031.691406 249.492188 1031.714844 254.828125 1031.714844 260.160156 C 1036.707031 260.375 1041.722656 260.546875 1046.742188 260.785156 C 1046.574219 264.308594 1046.429688 267.808594 1046.28125 271.332031 C 1041.410156 271.40625 1036.5625 271.453125 1031.714844 271.574219 C 1031.714844 277.027344 1031.785156 282.480469 1031.882812 287.933594 C 1043.507812 286.101562 1058.054688 293.675781 1067.050781 283.277344 C 1071.898438 278.546875 1075.15625 272.515625 1078.316406 266.601562 C 1083.117188 272.296875 1090.664062 271.089844 1097.296875 270.875 C 1097.25 265.371094 1097.203125 259.871094 1097.128906 254.390625 C 1092.570312 254.269531 1088.035156 254.125 1083.5 253.886719 C 1084.898438 247.753906 1086.300781 241.625 1087.121094 235.402344 C 1090.472656 234.726562 1093.847656 234.074219 1097.25 233.445312 C 1097.203125 228.304688 1097.179688 223.167969 1097.128906 218.027344 C 1094.089844 217.832031 1091.074219 217.664062 1088.058594 217.519531 C 1086.300781 214.914062 1084.585938 212.308594 1082.800781 209.726562 C 1079.039062 209.410156 1075.300781 209.074219 1071.5625 208.6875 C 1071.539062 205.429688 1071.539062 202.148438 1071.5625 198.867188 C 1086.492188 196.234375 1101.496094 192.253906 1116.714844 192.710938 C 1116.667969 201.109375 1111.648438 208.519531 1112.324219 216.988281 C 1112.566406 240.566406 1111.796875 264.164062 1112.953125 287.71875 C 1117.753906 287.308594 1122.503906 286.367188 1127.28125 285.546875 C 1128.703125 289.238281 1131.382812 294.257812 1126.847656 297.007812 C 1113.941406 301.832031 1100.867188 308.011719 1086.757812 307.601562 C 1086.300781 298.238281 1086.46875 288.875 1086.273438 279.511719 C 1076.023438 290.058594 1066.617188 303.355469 1051.398438 306.757812 C 1044.234375 307.382812 1035.886719 308.90625 1029.832031 304.078125 C 1024.574219 300.074219 1021.679688 293.53125 1021.414062 287.042969 C 1020.8125 263.054688 1022.019531 239.019531 1020.90625 215.058594 C 1018.59375 208.109375 1010.148438 209.871094 1004.507812 208.808594 C 1004.507812 205.453125 1004.480469 202.125 1004.480469 198.769531 M 1091.027344 277.894531 C 1091.125 283.179688 1091.171875 288.464844 1091.242188 293.75 C 1096.695312 293.847656 1102.148438 293.894531 1107.621094 293.894531 C 1107.742188 288.539062 1107.71875 283.203125 1107.644531 277.847656 C 1102.097656 277.847656 1096.574219 277.847656 1091.027344 277.894531 Z M 1091.027344 277.894531 "/>
<path style=" stroke:none;fill-rule:nonzero;fill:rgb(47.843137%,14.509804%,14.117647%);fill-opacity:1;" d="M 1152.992188 200.121094 C 1168.625 188.777344 1189.875 191.046875 1207.3125 196.550781 C 1207.503906 207.964844 1207.503906 219.402344 1207.503906 230.816406 C 1203.089844 230.671875 1198.703125 230.574219 1194.335938 230.527344 C 1193.707031 227.074219 1192.214844 223.335938 1194.382812 220.125 C 1197.207031 214.9375 1196.167969 208.878906 1196.363281 203.234375 C 1190.984375 203.355469 1185.605469 203.355469 1180.25 203.234375 C 1180.007812 204.585938 1179.5 207.289062 1179.261719 208.640625 C 1173.15625 207.167969 1167.054688 208.785156 1162.304688 212.863281 C 1166.285156 229.320312 1184.832031 234.265625 1196.628906 243.941406 C 1196.746094 249.445312 1196.796875 254.972656 1196.746094 260.519531 C 1202.441406 260.496094 1208.179688 260.617188 1213.898438 260.957031 C 1213.800781 268.316406 1215.128906 276.183594 1211.4375 282.9375 C 1204.054688 298.238281 1186.785156 308.324219 1169.878906 307.382812 C 1158.636719 307.84375 1147.710938 304.585938 1137.265625 300.773438 C 1136.976562 288.972656 1137.21875 277.148438 1137 265.324219 C 1141.125 265.589844 1145.78125 263.875 1149.542969 266.023438 C 1152.246094 272.78125 1154.03125 280.117188 1159.144531 285.617188 C 1164.015625 290.007812 1162.519531 296.863281 1162.980469 302.703125 C 1168.40625 302.679688 1173.808594 302.65625 1179.261719 302.703125 C 1179.308594 298.695312 1179.40625 294.691406 1179.527344 290.710938 C 1185.628906 289.359375 1192.09375 284.628906 1192.117188 277.871094 C 1190.042969 267.15625 1179.816406 261.511719 1171.203125 256.492188 C 1170.867188 252.363281 1170.625 248.238281 1170.382812 244.113281 C 1162.253906 243.386719 1151.738281 246.234375 1146.699219 237.835938 C 1140.183594 232.289062 1141.34375 223.503906 1141.4375 215.878906 C 1144.71875 215.589844 1148 215.324219 1151.304688 215.058594 C 1151.90625 210.160156 1150.726562 204.65625 1152.992188 200.121094 Z M 1152.992188 200.121094 "/>
<path style=" stroke:none;fill-rule:nonzero;fill:rgb(47.843137%,14.509804%,14.117647%);fill-opacity:1;" d="M 1221.664062 202.992188 C 1235.703125 198.914062 1249.113281 190.445312 1264.308594 192.421875 C 1264.261719 197.128906 1264.238281 201.832031 1264.117188 206.515625 C 1260.667969 207.070312 1257.242188 207.648438 1253.816406 208.203125 C 1253.503906 212.621094 1253.117188 217.085938 1253.457031 221.523438 C 1255.652344 224.808594 1260.523438 223.648438 1263.875 225 C 1264.164062 228.714844 1264.40625 232.433594 1264.71875 236.148438 C 1260.234375 236.488281 1255.769531 236.800781 1251.332031 237.136719 C 1251.285156 242.421875 1251.261719 247.707031 1251.210938 252.992188 C 1255.578125 253.378906 1259.96875 253.765625 1264.359375 254.199219 C 1264.308594 257.699219 1264.238281 261.195312 1264.164062 264.71875 C 1259.125 264.960938 1254.105469 265.082031 1249.066406 265.203125 C 1249.089844 270.582031 1249.066406 275.941406 1249.042969 281.324219 C 1253.988281 281.660156 1258.957031 281.878906 1263.925781 282.117188 C 1267.203125 288.320312 1273.453125 291.457031 1279.507812 294.378906 C 1279.214844 297.25 1278.925781 300.144531 1278.660156 303.039062 C 1259.628906 302.871094 1240.625 303.089844 1221.617188 302.992188 C 1221.640625 299.757812 1221.664062 296.523438 1221.6875 293.292969 C 1228.972656 291.457031 1237.898438 289.019531 1238.285156 279.898438 C 1238.597656 257.503906 1239.105469 234.992188 1237.824219 212.597656 C 1232.808594 212.910156 1227.792969 213.320312 1222.796875 213.707031 C 1222.269531 210.136719 1221.90625 206.5625 1221.664062 202.992188 Z M 1221.664062 202.992188 "/>
<path style=" stroke:none;fill-rule:nonzero;fill:rgb(47.843137%,14.509804%,14.117647%);fill-opacity:1;" d="M 1318.050781 196.960938 C 1335.949219 189.429688 1357.078125 190.710938 1374.6875 198.457031 C 1378.28125 199.300781 1377.53125 203.425781 1375.578125 205.5 C 1370.777344 211.945312 1372.996094 220.703125 1378.375 226.0625 C 1368.148438 227.507812 1360.40625 218.414062 1353.148438 212.523438 C 1348.296875 209.605469 1347.914062 203.859375 1346.996094 198.867188 C 1342.074219 198.9375 1337.179688 198.890625 1332.304688 198.746094 C 1331.824219 202.050781 1331.367188 205.382812 1330.90625 208.6875 C 1317.421875 211.269531 1312.746094 225.601562 1301.601562 231.636719 C 1303.964844 243.75 1304.300781 256.058594 1301.382812 268.121094 C 1311.78125 272.007812 1318.316406 281.46875 1323.984375 290.492188 C 1336.429688 290.15625 1348.683594 286.75 1361.203125 288.441406 C 1361.613281 277.824219 1367.113281 265.492188 1379.460938 265.757812 C 1379.316406 270.464844 1381.269531 276.304688 1377.097656 279.828125 C 1366.097656 291.941406 1353.292969 304.464844 1336.480469 307.070312 C 1326.445312 307.699219 1315.519531 308.277344 1306.785156 302.390625 C 1290.503906 293.242188 1281.363281 274.132812 1282.328125 255.765625 C 1281.363281 231.371094 1296.679688 207.964844 1318.050781 196.960938 Z M 1318.050781 196.960938 "/>
<path style=" stroke:none;fill-rule:nonzero;fill:rgb(47.843137%,14.509804%,14.117647%);fill-opacity:1;" d="M 626.316406 194.617188 C 640.019531 194.5 653.71875 194.378906 667.417969 194.617188 C 666.742188 201.59375 663.875 208.398438 665.296875 215.492188 C 662.28125 215.539062 659.289062 215.589844 656.300781 215.613281 C 656.203125 221.113281 656.132812 226.617188 656.105469 232.117188 C 661.894531 232.527344 668.117188 231.273438 673.644531 233.398438 C 675.5 236.65625 676.851562 240.179688 678.394531 243.582031 C 673.859375 243.773438 669.300781 243.917969 664.765625 244.0625 C 664.765625 249.589844 664.839844 255.089844 665.007812 260.617188 C 671.664062 260.546875 679.117188 261.65625 684.351562 256.539062 C 685.292969 260.859375 686.355469 265.15625 687.414062 269.449219 C 683.410156 269.449219 679.429688 269.425781 675.453125 269.472656 C 675.453125 274.976562 675.453125 280.5 675.425781 286.027344 C 680.878906 286.003906 686.332031 285.929688 691.78125 285.785156 C 689.441406 264.429688 700.390625 245.246094 705.53125 225.167969 C 708.929688 222.753906 713.5625 223.890625 717.519531 223.191406 C 717.300781 218.171875 717.179688 213.128906 717.230469 208.109375 C 708.570312 207.191406 699.886719 206.683594 691.25 205.574219 C 690.839844 202.171875 690.503906 198.769531 690.1875 195.367188 C 707.652344 193.894531 725.332031 194.039062 742.796875 195.269531 C 745.910156 204.945312 734.957031 206.324219 729.796875 211.460938 C 724.34375 217.855469 721.789062 226.085938 718.941406 233.855469 C 707.726562 266.121094 695.59375 298.070312 684.207031 330.285156 C 678.949219 346.910156 661.246094 357.890625 644.046875 355.71875 C 638.136719 347.753906 631.382812 340.492188 625.207031 332.722656 C 628.34375 329.054688 632.445312 326.519531 636.785156 324.542969 C 642.984375 330.382812 651.476562 335.230469 653.164062 344.28125 C 658.421875 344.472656 663.679688 344.5 668.964844 344.449219 C 666.40625 329.996094 675.5 317.738281 677.742188 304.003906 C 667.203125 274.46875 654.636719 245.511719 642.453125 216.554688 C 639.921875 209.121094 632.25 206.324219 625.761719 203.304688 C 625.90625 201.132812 626.171875 196.789062 626.316406 194.617188 Z M 626.316406 194.617188 "/>
<path style=" stroke:none;fill-rule:nonzero;fill:rgb(47.843137%,14.509804%,14.117647%);fill-opacity:1;" d="M 656.324219 383.855469 C 664.355469 385.957031 659.363281 397.082031 660.691406 403.183594 C 664.597656 399.878906 668.503906 396.308594 673.644531 395.054688 C 671.738281 399.179688 668.722656 402.605469 665.777344 406.03125 C 668.9375 410.570312 673.691406 414.503906 673.980469 420.4375 C 668.335938 418.726562 664.933594 413.828125 661.246094 409.628906 C 660.28125 413.609375 661.679688 419.59375 656.300781 420.558594 C 655.671875 408.324219 655.578125 396.066406 656.324219 383.855469 Z M 656.324219 383.855469 "/>
<path style=" stroke:none;fill-rule:nonzero;fill:rgb(47.843137%,14.509804%,14.117647%);fill-opacity:1;" d="M 367.070312 389.332031 C 368.152344 388.394531 370.300781 386.460938 371.386719 385.496094 C 372.328125 394.933594 371.964844 404.417969 371.964844 413.875 C 376.8125 414.332031 381.6875 415.035156 386.050781 417.328125 C 380.335938 420.96875 373.53125 419.789062 367.1875 419.402344 C 366.851562 409.386719 366.464844 399.347656 367.070312 389.332031 Z M 367.070312 389.332031 "/>
<path style=" stroke:none;fill-rule:nonzero;fill:rgb(47.843137%,14.509804%,14.117647%);fill-opacity:1;" d="M 387.402344 388.078125 C 389.042969 387.5 390.683594 386.921875 392.347656 386.367188 C 391.453125 397.515625 393.648438 408.664062 392.5625 419.859375 C 391.453125 419.617188 389.257812 419.160156 388.148438 418.917969 C 386.535156 408.6875 388.585938 398.335938 387.402344 388.078125 Z M 387.402344 388.078125 "/>
<path style=" stroke:none;fill-rule:nonzero;fill:rgb(47.843137%,14.509804%,14.117647%);fill-opacity:1;" d="M 548.023438 386.246094 C 552.265625 384.871094 554.027344 391.917969 549.6875 392.761719 C 545.441406 394.207031 543.800781 387.136719 548.023438 386.246094 Z M 548.023438 386.246094 "/>
<path style=" stroke:none;fill-rule:nonzero;fill:rgb(47.843137%,14.509804%,14.117647%);fill-opacity:1;" d="M 820.511719 387.355469 C 822.734375 385.253906 827.605469 386.945312 826.738281 390.371094 C 825.410156 395.292969 816.269531 391.289062 820.511719 387.355469 Z M 820.511719 387.355469 "/>
<path style=" stroke:none;fill-rule:nonzero;fill:rgb(47.843137%,14.509804%,14.117647%);fill-opacity:1;" d="M 889.765625 385.375 C 891.113281 385.375 893.792969 385.351562 895.117188 385.351562 C 895.023438 397.007812 895.3125 408.664062 894.828125 420.320312 C 893.792969 419.933594 891.71875 419.136719 890.679688 418.726562 C 888.75 407.746094 890.320312 396.476562 889.765625 385.375 Z M 889.765625 385.375 "/>
<path style=" stroke:none;fill-rule:nonzero;fill:rgb(47.843137%,14.509804%,14.117647%);fill-opacity:1;" d="M 902.621094 386.945312 C 904.066406 386.96875 906.984375 386.992188 908.433594 387.015625 C 908.335938 388.273438 908.121094 390.804688 908.023438 392.085938 C 906.746094 392.132812 904.1875 392.230469 902.910156 392.277344 C 902.835938 390.949219 902.691406 388.273438 902.621094 386.945312 Z M 902.621094 386.945312 "/>
<path style=" stroke:none;fill-rule:nonzero;fill:rgb(47.843137%,14.509804%,14.117647%);fill-opacity:1;" d="M 397.21875 395.582031 C 405.734375 395.800781 404.527344 406.851562 407.496094 412.644531 C 411.183594 406.585938 411.039062 397.226562 418.785156 394.761719 C 417.3125 403.183594 413.984375 411.078125 411.089844 419.0625 C 409.714844 419.183594 406.964844 419.402344 405.566406 419.523438 C 401.972656 411.847656 398.933594 403.910156 397.21875 395.582031 Z M 397.21875 395.582031 "/>
<path style=" stroke:none;fill-rule:nonzero;fill:rgb(47.843137%,14.509804%,14.117647%);fill-opacity:1;" d="M 422.425781 412.089844 C 418.324219 403.644531 426.960938 392.542969 436.246094 395.730469 C 442.398438 396.113281 442.492188 403.476562 444.398438 407.867188 C 438.660156 408.976562 432.796875 409.167969 426.984375 409.507812 C 428.816406 417.300781 437.597656 413.394531 443.121094 413.683594 C 440.710938 423.578125 424.402344 421.285156 422.425781 412.089844 M 427.78125 400.917969 C 427.804688 401.761719 427.828125 403.476562 427.851562 404.34375 C 431.179688 404.296875 434.535156 404.34375 437.863281 404.417969 C 437.863281 403.523438 437.839844 401.761719 437.816406 400.894531 C 434.460938 400.84375 431.109375 400.867188 427.78125 400.917969 Z M 427.78125 400.917969 "/>
<path style=" stroke:none;fill-rule:nonzero;fill:rgb(47.843137%,14.509804%,14.117647%);fill-opacity:1;" d="M 459.835938 396.378906 C 468.230469 395.96875 476.648438 397.175781 485.019531 396.089844 C 488.660156 395.148438 492.496094 398.117188 492.761719 401.761719 C 493.339844 407.480469 493.027344 413.25 493.074219 418.992188 C 491.867188 419.085938 489.457031 419.257812 488.273438 419.351562 C 487.960938 413.007812 487.671875 406.660156 486.851562 400.363281 C 476.046875 400.046875 478.507812 411.921875 478.480469 419.160156 C 477.371094 419.207031 475.105469 419.328125 473.972656 419.378906 C 473.828125 413.199219 473.65625 407.046875 473.101562 400.917969 C 471.148438 401.039062 467.21875 401.304688 465.265625 401.421875 C 462.609375 407.433594 467.605469 417.808594 460.152344 420.390625 C 459.476562 412.402344 459.621094 404.367188 459.835938 396.378906 Z M 459.835938 396.378906 "/>
<path style=" stroke:none;fill-rule:nonzero;fill:rgb(47.843137%,14.509804%,14.117647%);fill-opacity:1;" d="M 499.949219 396.621094 C 500.890625 396.089844 502.746094 395.027344 503.664062 394.5 C 504.265625 401.132812 504.484375 407.792969 505.113281 414.40625 C 507.835938 414.285156 510.585938 414.140625 513.335938 413.996094 C 514.878906 408.203125 514.734375 402.148438 514.832031 396.210938 C 516.085938 396.234375 518.617188 396.257812 519.898438 396.285156 C 519.679688 403.691406 519.609375 411.101562 519.898438 418.507812 C 514.878906 418.652344 509.910156 419.617188 504.917969 419.328125 C 496.765625 415.371094 498.671875 403.910156 499.949219 396.621094 Z M 499.949219 396.621094 "/>
<path style=" stroke:none;fill-rule:nonzero;fill:rgb(47.843137%,14.509804%,14.117647%);fill-opacity:1;" d="M 526.457031 399.15625 C 528.4375 394.113281 534.851562 395.464844 539 396.40625 C 539.242188 397.683594 539.722656 400.242188 539.964844 401.519531 C 536.589844 401.328125 533.1875 401.207031 529.8125 401.253906 C 533.210938 405.332031 540.328125 406.878906 541.074219 412.667969 C 539.964844 421.695312 526.867188 422.296875 523.417969 414.429688 C 527.832031 413.949219 532.246094 414.140625 536.683594 414.117188 C 533.308594 409.167969 522.359375 406.539062 526.457031 399.15625 Z M 526.457031 399.15625 "/>
<path style=" stroke:none;fill-rule:nonzero;fill:rgb(47.843137%,14.509804%,14.117647%);fill-opacity:1;" d="M 546.308594 396.164062 C 547.613281 396.113281 550.21875 396.019531 551.519531 395.96875 C 551.664062 403.8125 551.6875 411.65625 551.496094 419.523438 C 550.242188 419.449219 547.757812 419.328125 546.503906 419.257812 C 546.550781 411.558594 546.429688 403.859375 546.308594 396.164062 Z M 546.308594 396.164062 "/>
<path style=" stroke:none;fill-rule:nonzero;fill:rgb(47.843137%,14.509804%,14.117647%);fill-opacity:1;" d="M 559.816406 398.40625 C 564.039062 393.992188 570.1875 395.535156 575.398438 396.789062 C 575.472656 397.996094 575.566406 400.457031 575.640625 401.6875 C 571.347656 401.375 567.078125 401.183594 562.785156 401.277344 C 562.664062 405.527344 562.710938 409.773438 562.953125 414.019531 C 567.558594 414.019531 572.191406 413.828125 576.820312 413.804688 C 574.097656 421.089844 563.050781 422.105469 558.925781 415.613281 C 554.945312 410.59375 556.417969 403.257812 559.816406 398.40625 Z M 559.816406 398.40625 "/>
<path style=" stroke:none;fill-rule:nonzero;fill:rgb(47.843137%,14.509804%,14.117647%);fill-opacity:1;" d="M 589.96875 396.839844 C 599.109375 395.824219 608.277344 397.128906 617.394531 396.042969 C 620.480469 395.488281 623.132812 398.792969 623.277344 401.617188 C 623.832031 407.433594 623.640625 413.273438 623.738281 419.113281 C 622.433594 419.136719 619.804688 419.207031 618.503906 419.234375 C 618.429688 413.078125 618.285156 406.902344 617.753906 400.773438 C 615.898438 400.988281 612.183594 401.421875 610.351562 401.640625 C 609.433594 407.433594 609.191406 413.296875 609 419.136719 C 607.816406 419.136719 605.453125 419.136719 604.273438 419.113281 C 604.222656 413.828125 604.535156 408.519531 603.886719 403.257812 C 602.679688 399.371094 596.988281 400.074219 595.5625 403.523438 C 594.695312 408.6875 594.914062 413.972656 594.695312 419.207031 C 593.488281 419.160156 591.101562 419.0625 589.917969 419.015625 C 590.015625 411.605469 590.089844 404.222656 589.96875 396.839844 Z M 589.96875 396.839844 "/>
<path style=" stroke:none;fill-rule:nonzero;fill:rgb(47.843137%,14.509804%,14.117647%);fill-opacity:1;" d="M 629.117188 401.640625 C 631.261719 392.953125 641.078125 395.488281 647.449219 396.984375 C 648.242188 404.222656 648.4375 411.488281 648.386719 418.75 C 641.367188 418.847656 630.105469 422.660156 628.511719 412.597656 C 627.453125 403.476562 639.585938 405.816406 644.480469 401.304688 C 639.34375 400.964844 634.230469 401.398438 629.117188 401.640625 M 635.121094 409 C 634.976562 410.375 634.640625 413.175781 634.496094 414.550781 C 637.390625 414.285156 640.308594 414.019531 643.203125 413.777344 C 643.179688 412.597656 643.082031 410.230469 643.035156 409.050781 C 640.378906 409.023438 637.75 409 635.121094 409 Z M 635.121094 409 "/>
<path style=" stroke:none;fill-rule:nonzero;fill:rgb(47.843137%,14.509804%,14.117647%);fill-opacity:1;" d="M 687.464844 419.789062 C 673.882812 419.933594 673.617188 395.246094 687.464844 395.414062 C 695.351562 393.726562 699.1875 402.074219 698.609375 408.6875 C 693.035156 408.953125 687.488281 409.023438 681.917969 409.144531 C 684.253906 416.796875 692.914062 413.707031 698.703125 413.320312 C 696.484375 417.855469 692.914062 421.597656 687.464844 419.789062 M 683.484375 400.699219 C 683.507812 401.714844 683.582031 403.742188 683.605469 404.753906 C 687.34375 404.03125 692.023438 404.972656 694.601562 401.519531 C 690.914062 401.085938 687.199219 400.84375 683.484375 400.699219 Z M 683.484375 400.699219 "/>
<path style=" stroke:none;fill-rule:nonzero;fill:rgb(47.843137%,14.509804%,14.117647%);fill-opacity:1;" d="M 702.972656 397.296875 C 706.976562 395.875 711.199219 395.246094 715.445312 395.996094 C 715.878906 397.34375 716.722656 400.046875 717.15625 401.375 C 713.828125 401.375 710.5 401.449219 707.21875 401.738281 C 710.933594 405.792969 719.664062 407.9375 717.6875 414.890625 C 714.597656 422.371094 703.3125 421.019531 701.042969 413.632812 C 705.359375 413.875 709.75 414.527344 714.042969 413.511719 C 708.714844 409.242188 700.609375 405.550781 702.972656 397.296875 Z M 702.972656 397.296875 "/>
<path style=" stroke:none;fill-rule:nonzero;fill:rgb(47.843137%,14.509804%,14.117647%);fill-opacity:1;" d="M 733.605469 396.597656 C 742.386719 395.753906 751.191406 397.441406 759.921875 396.019531 C 763.058594 395.292969 766.21875 397.828125 766.796875 400.917969 C 767.59375 407.238281 767.230469 413.660156 767.160156 420.027344 C 766.097656 419.714844 764.023438 419.085938 762.984375 418.773438 C 761.925781 412.8125 762.019531 406.734375 761.585938 400.722656 C 759.851562 400.867188 756.328125 401.160156 754.566406 401.304688 C 752.855469 407.046875 752.976562 413.078125 753.144531 419.015625 C 752.058594 419.136719 749.886719 419.351562 748.800781 419.472656 C 748.511719 413.222656 748.246094 407 747.453125 400.820312 C 744.703125 401.085938 741.953125 401.398438 739.226562 401.714844 C 738.527344 407.578125 738.191406 413.464844 737.804688 419.351562 C 736.789062 419.328125 734.765625 419.328125 733.75 419.328125 C 733.605469 411.75 733.628906 404.175781 733.605469 396.597656 Z M 733.605469 396.597656 "/>
<path style=" stroke:none;fill-rule:nonzero;fill:rgb(47.843137%,14.509804%,14.117647%);fill-opacity:1;" d="M 774.175781 396.667969 C 775.261719 396.378906 777.433594 395.800781 778.519531 395.535156 C 778.976562 402.125 779.410156 408.734375 780.882812 415.226562 C 791.449219 415.035156 788.890625 403.765625 789.785156 396.667969 C 790.894531 396.308594 793.160156 395.558594 794.292969 395.171875 C 794.609375 402.847656 794.464844 410.546875 794.390625 418.21875 C 788.070312 418.027344 780.328125 421.933594 775.261719 416.480469 C 772.5625 410.28125 773.527344 403.183594 774.175781 396.667969 Z M 774.175781 396.667969 "/>
<path style=" stroke:none;fill-rule:nonzero;fill:rgb(47.843137%,14.509804%,14.117647%);fill-opacity:1;" d="M 799.382812 398.117188 C 803.941406 395.390625 809.007812 395.125 814 396.71875 C 814.097656 397.851562 814.316406 400.144531 814.433594 401.277344 C 811.128906 401.230469 807.824219 401.253906 804.546875 401.398438 C 807.5625 404.34375 811.035156 406.734375 814.507812 409.121094 C 814.578125 411.65625 814.675781 414.164062 814.773438 416.699219 C 809.34375 420.945312 800.566406 421.40625 798.128906 413.753906 C 802.519531 413.875 806.886719 414.140625 811.273438 414.117188 C 806.570312 409.121094 798.082031 406.417969 799.382812 398.117188 Z M 799.382812 398.117188 "/>
<path style=" stroke:none;fill-rule:nonzero;fill:rgb(47.843137%,14.509804%,14.117647%);fill-opacity:1;" d="M 820.539062 396.667969 C 821.769531 396.308594 824.253906 395.609375 825.480469 395.269531 C 825.410156 403.015625 826.445312 410.929688 824.976562 418.605469 C 823.9375 418.96875 821.886719 419.714844 820.851562 420.078125 C 820.199219 412.332031 818.679688 404.34375 820.539062 396.667969 Z M 820.539062 396.667969 "/>
<path style=" stroke:none;fill-rule:nonzero;fill:rgb(47.843137%,14.509804%,14.117647%);fill-opacity:1;" d="M 833.007812 399.25 C 836.796875 394.789062 843.066406 395.078125 848.324219 396.066406 C 848.542969 397.515625 849.023438 400.386719 849.265625 401.832031 C 845.308594 401.421875 841.328125 401.109375 837.351562 401.011719 C 836.09375 405.453125 836.265625 409.941406 837.878906 414.261719 C 841.957031 414.070312 846.03125 413.707031 850.132812 413.511719 C 848.734375 419.0625 842.921875 421.597656 837.761719 419.378906 C 829.535156 416.675781 829.339844 405.671875 833.007812 399.25 Z M 833.007812 399.25 "/>
<path style=" stroke:none;fill-rule:nonzero;fill:rgb(47.843137%,14.509804%,14.117647%);fill-opacity:1;" d="M 864.628906 396.960938 C 870.25 396.019531 878.28125 392.90625 881.972656 399.105469 C 883.949219 405.429688 882.867188 412.164062 882.695312 418.652344 C 875.773438 419.304688 864.414062 422.105469 862.628906 412.667969 C 860.964844 402.535156 875.148438 407.261719 878.257812 400.699219 C 873.457031 400.820312 868.730469 401.421875 864.027344 402.125 C 864.171875 400.84375 864.484375 398.238281 864.628906 396.960938 M 867.933594 414.453125 C 871.046875 414.332031 874.15625 414.164062 877.269531 414.019531 C 877.269531 412.523438 877.246094 409.554688 877.246094 408.058594 C 873.265625 408.785156 868.273438 409.339844 867.933594 414.453125 Z M 867.933594 414.453125 "/>
<path style=" stroke:none;fill-rule:nonzero;fill:rgb(47.843137%,14.509804%,14.117647%);fill-opacity:1;" d="M 902.933594 395.898438 C 904.210938 395.996094 906.792969 396.1875 908.070312 396.257812 C 907.878906 403.886719 907.878906 411.511719 907.878906 419.136719 C 906.671875 419.207031 904.261719 419.351562 903.03125 419.425781 C 902.835938 411.582031 902.910156 403.742188 902.933594 395.898438 Z M 902.933594 395.898438 "/>
<path style=" stroke:none;fill-rule:nonzero;fill:rgb(47.843137%,14.509804%,14.117647%);fill-opacity:1;" d="M 912.75 394.59375 C 919.578125 397.371094 920.082031 405.695312 923.652344 411.316406 C 926.71875 405.742188 926.066406 395.390625 934.339844 395.171875 C 931.976562 403.425781 929.082031 411.511719 925.679688 419.378906 C 924.257812 419.304688 921.410156 419.136719 919.988281 419.0625 C 917.308594 410.980469 913.257812 403.210938 912.75 394.59375 Z M 912.75 394.59375 "/>
<path style=" stroke:none;fill-rule:nonzero;fill:rgb(47.843137%,14.509804%,14.117647%);fill-opacity:1;" d="M 940.296875 417.808594 C 934.84375 411.390625 935.28125 399.421875 943.625 395.582031 C 947.824219 395.003906 951.945312 396.308594 956.046875 397.054688 C 956.890625 400.867188 957.734375 404.65625 958.554688 408.46875 C 952.5 408.855469 946.449219 408.90625 940.441406 409.316406 C 944.492188 415.925781 951.898438 414.359375 958.484375 413.828125 C 955.105469 420.753906 946.375 421.285156 940.296875 417.808594 M 942.757812 400.75 C 943.3125 405.695312 948.449219 404.199219 951.945312 404.800781 C 952.019531 403.835938 952.117188 401.929688 952.1875 400.964844 C 949.027344 400.867188 945.894531 400.796875 942.757812 400.75 Z M 942.757812 400.75 "/>
</g>
</svg>
