<?xml version="1.0" encoding="UTF-8" ?>
<!DOCTYPE svg PUBLIC "-//W3C//DTD SVG 1.1//EN" "http://www.w3.org/Graphics/SVG/1.1/DTD/svg11.dtd">
<svg width="580pt" height="207pt" viewBox="0 0 580 207" version="1.1" xmlns="http://www.w3.org/2000/svg">
<g id="#ffffffff">
</g>
<g id="#7a2524ff">
<path fill="#7a2524" opacity="1.00" d=" M 158.65 1.33 C 159.83 1.20 161.02 1.09 162.20 0.97 C 162.36 6.73 163.66 12.87 167.93 17.04 C 177.23 26.46 187.29 36.76 189.63 50.35 C 191.11 56.82 189.42 63.36 189.15 69.83 C 190.20 74.84 191.87 79.81 191.65 85.01 C 191.41 91.84 189.74 98.63 186.96 104.87 C 186.52 106.28 185.29 107.05 183.91 107.35 C 186.08 100.74 189.01 94.15 188.69 87.02 C 189.25 78.91 186.10 70.47 179.50 65.49 C 173.89 61.41 168.57 56.76 162.33 53.65 C 162.20 72.53 162.23 91.41 162.32 110.29 C 161.31 110.57 160.30 110.85 159.29 111.14 C 159.32 114.14 159.31 117.13 159.32 120.13 C 157.43 120.77 155.49 121.26 153.51 121.54 C 153.21 123.16 153.27 124.95 152.32 126.37 C 147.62 130.02 141.28 131.57 135.45 130.26 C 132.68 129.16 129.87 127.37 128.79 124.44 C 127.57 121.62 127.75 118.50 127.77 115.50 C 123.14 120.16 118.36 125.30 111.70 126.87 C 107.07 127.77 101.81 127.92 97.72 125.20 C 92.91 121.97 89.00 117.12 87.70 111.39 C 86.46 104.97 87.10 98.06 90.51 92.37 C 93.96 86.29 99.62 80.45 106.95 79.77 C 110.61 79.54 114.53 79.34 117.87 81.16 C 124.36 84.48 127.24 92.22 127.19 99.16 C 124.67 99.17 122.18 98.85 119.74 98.24 C 116.90 97.43 114.18 99.32 111.37 98.95 C 109.37 97.22 106.34 96.18 104.00 97.89 C 101.81 99.70 98.88 98.92 96.28 99.09 C 96.31 100.85 96.33 102.62 96.33 104.39 C 94.91 104.42 93.48 104.44 92.05 104.45 C 92.05 106.81 92.03 109.17 92.00 111.53 C 94.20 111.51 96.40 111.48 98.61 111.47 C 99.51 112.61 100.42 113.75 101.35 114.88 C 98.18 116.34 99.12 119.96 99.06 122.76 C 101.22 122.72 103.39 122.71 105.55 122.76 C 105.66 121.90 105.88 120.17 105.98 119.31 C 109.28 120.06 112.51 121.18 115.92 121.37 C 116.63 120.44 117.35 119.50 118.07 118.57 C 119.39 118.56 120.71 118.55 122.04 118.53 C 121.89 114.80 123.30 110.57 127.56 110.04 C 127.74 111.81 127.88 113.60 128.06 115.38 C 130.68 107.98 136.75 102.05 143.95 99.08 C 148.72 97.12 154.16 97.70 158.78 99.79 C 158.72 66.97 158.94 34.14 158.65 1.33 M 162.18 25.46 C 162.64 31.90 165.00 38.12 168.54 43.49 C 171.41 47.85 175.47 51.20 178.88 55.11 C 181.77 58.24 184.08 61.84 186.72 65.18 C 187.01 59.51 187.07 53.60 184.57 48.36 C 179.97 38.48 171.57 30.76 162.18 25.46 M 112.12 85.24 C 110.17 87.10 107.29 85.89 104.94 86.70 C 101.49 87.99 99.07 91.11 97.77 94.46 C 104.30 94.60 110.84 94.60 117.37 94.51 C 118.70 91.23 119.11 87.72 118.83 84.21 C 116.60 84.44 113.94 83.59 112.12 85.24 Z" />
<path fill="#7a2524" opacity="1.00" d=" M 209.60 58.41 C 210.96 57.79 212.45 57.92 213.89 58.14 C 213.23 61.64 211.52 64.88 211.45 68.49 C 209.50 68.51 207.56 68.52 205.62 68.57 C 205.61 70.83 205.61 73.09 205.63 75.35 C 207.66 75.39 209.70 75.41 211.73 75.44 C 211.74 77.78 211.73 80.11 211.71 82.45 C 209.66 82.48 207.62 82.51 205.58 82.57 C 205.58 84.79 205.59 87.01 205.62 89.24 C 207.64 89.27 209.67 89.29 211.70 89.34 C 211.71 91.67 211.74 94.01 211.78 96.34 C 209.72 96.35 207.65 96.36 205.59 96.41 C 205.57 98.72 205.57 101.04 205.59 103.36 C 207.65 103.38 209.70 103.41 211.76 103.45 C 211.75 105.27 211.73 107.09 211.74 108.92 C 209.37 109.02 206.99 109.07 204.62 109.13 C 204.66 111.34 204.67 113.55 204.68 115.76 C 207.01 115.85 209.35 115.92 211.68 116.09 C 212.29 119.27 214.93 120.80 217.88 121.44 C 217.89 122.82 217.90 124.21 217.90 125.60 C 210.02 125.53 202.14 125.56 194.26 125.57 C 194.26 124.20 194.27 122.84 194.27 121.47 C 196.10 120.90 197.93 120.31 199.75 119.70 C 202.21 114.46 200.97 108.57 201.20 103.00 C 201.00 91.62 201.70 80.19 200.78 68.84 C 198.68 68.57 196.56 68.46 194.44 68.37 C 194.36 66.99 194.28 65.62 194.20 64.25 C 199.19 61.93 204.45 60.29 209.60 58.41 Z" />
<path fill="#7a2524" opacity="1.00" d=" M 513.95 61.94 C 515.30 59.88 518.00 60.46 520.09 60.49 C 521.03 60.76 523.03 60.54 522.47 62.11 C 521.78 62.29 520.42 62.65 519.73 62.83 C 519.66 64.59 519.63 66.36 519.59 68.13 C 520.71 68.93 521.84 69.72 522.95 70.55 C 520.69 70.88 518.39 71.51 516.11 71.05 C 512.24 70.15 511.14 64.48 513.95 61.94 Z" />
<path fill="#7a2524" opacity="1.00" d=" M 7.90 64.07 C 13.48 63.92 19.07 63.89 24.64 64.22 C 26.20 67.76 27.71 71.32 29.07 74.95 C 26.09 76.79 26.13 80.13 26.30 83.25 C 28.53 83.31 30.75 83.39 32.98 83.52 C 33.81 85.65 34.69 87.77 35.57 89.89 C 33.96 90.06 32.35 90.23 30.74 90.39 C 30.69 92.66 30.66 94.92 30.63 97.19 C 33.34 97.05 36.04 96.86 38.73 96.50 C 39.57 98.85 40.46 101.19 41.27 103.56 C 39.17 103.63 37.07 103.69 34.97 103.77 C 34.93 106.02 34.91 108.26 34.91 110.52 C 37.09 110.57 39.27 110.62 41.45 110.64 C 41.64 108.88 41.82 107.12 42.03 105.37 C 42.90 106.67 43.79 107.97 44.69 109.26 C 51.45 94.17 59.20 79.54 65.20 64.12 C 70.52 63.92 75.85 63.95 81.17 64.02 C 81.20 65.30 81.23 66.59 81.26 67.87 C 76.73 68.92 73.61 72.46 70.18 75.31 C 69.85 76.96 69.81 78.65 69.68 80.33 C 71.46 80.45 73.25 80.54 75.04 80.62 C 75.28 84.36 75.53 88.11 75.93 91.84 C 73.98 92.00 72.03 92.13 70.07 92.28 C 69.96 94.45 69.85 96.62 69.75 98.79 C 72.24 98.91 74.73 99.00 77.21 99.17 C 77.20 102.05 77.30 104.93 77.76 107.77 C 76.30 107.95 74.83 108.12 73.37 108.29 C 73.39 110.39 73.40 112.48 73.38 114.58 C 74.98 114.82 76.57 115.05 78.16 115.30 C 78.86 119.19 82.37 120.72 85.80 121.62 C 85.81 122.92 85.83 124.23 85.85 125.54 C 77.63 125.59 69.40 125.56 61.18 125.54 C 60.98 124.38 60.78 123.22 60.58 122.06 C 63.19 120.67 67.75 119.93 67.32 116.05 C 66.13 104.95 65.21 93.82 64.03 82.71 C 54.70 96.36 49.19 112.08 41.55 126.65 C 40.99 126.67 39.87 126.71 39.31 126.72 C 34.64 115.76 30.01 104.78 25.27 93.85 C 23.27 89.39 21.77 84.67 19.03 80.58 C 17.80 90.90 16.88 101.31 17.47 111.71 C 13.31 112.12 14.30 116.39 14.19 119.36 C 17.81 119.10 21.38 119.75 24.58 121.48 C 24.52 122.80 24.47 124.12 24.42 125.44 C 16.28 125.59 8.13 125.74 0.00 125.32 L 0.00 122.29 C 2.51 120.09 5.60 118.21 6.77 114.90 C 11.25 103.17 12.07 90.51 13.48 78.15 C 13.74 75.46 14.18 72.64 13.18 70.04 C 11.60 69.13 9.79 68.73 8.05 68.23 C 7.99 66.84 7.95 65.46 7.90 64.07 Z" />
<path fill="#7a2524" opacity="1.00" d=" M 336.73 64.05 C 338.71 64.03 340.69 64.02 342.67 64.03 C 342.89 65.51 343.11 67.00 343.35 68.48 C 345.39 68.44 347.44 68.44 349.49 68.47 C 349.60 66.95 349.70 65.43 349.82 63.91 C 351.09 63.93 352.34 64.07 353.58 64.33 C 356.09 69.86 358.39 75.49 360.65 81.13 C 359.16 81.38 357.68 81.60 356.20 81.82 C 356.19 83.98 356.16 86.14 356.14 88.30 C 358.74 88.45 361.39 88.48 363.92 87.71 C 364.56 89.69 365.28 91.65 365.99 93.62 C 364.12 93.74 362.25 93.85 360.38 94.00 C 360.42 96.27 360.40 98.55 360.34 100.82 C 362.50 100.80 364.66 100.80 366.82 100.83 C 367.08 100.09 367.61 98.63 367.88 97.89 C 369.29 100.53 370.42 103.31 371.41 106.14 C 369.24 106.19 367.07 106.19 364.91 106.24 C 364.85 108.57 364.81 110.90 364.79 113.23 C 367.09 113.20 369.39 113.15 371.69 113.07 C 371.78 111.65 371.87 110.23 371.98 108.81 C 375.43 108.15 375.67 103.83 377.20 101.26 C 383.20 89.04 388.98 76.70 394.20 64.11 C 394.71 64.10 395.74 64.06 396.26 64.05 C 396.31 65.50 396.38 66.96 396.45 68.42 C 398.69 68.40 400.93 68.39 403.18 68.35 C 403.26 66.90 403.34 65.45 403.42 64.00 C 405.76 63.98 408.10 63.97 410.45 63.98 C 410.43 65.36 410.40 66.75 410.36 68.14 C 408.09 68.82 405.18 68.87 403.65 70.92 C 403.38 73.27 403.41 75.64 403.64 77.99 C 405.31 90.71 405.65 103.61 407.78 116.26 C 407.88 120.06 411.96 120.59 414.80 121.52 C 414.79 122.87 414.77 124.21 414.77 125.56 C 406.50 125.57 398.23 125.53 389.97 125.59 C 389.96 124.20 389.97 122.82 390.02 121.44 C 392.11 120.87 394.16 120.09 395.75 118.56 C 397.55 116.85 400.56 118.45 402.36 116.91 C 402.49 114.87 402.43 112.83 402.44 110.79 C 400.06 110.76 397.69 110.74 395.32 110.69 C 395.31 108.29 395.30 105.89 395.29 103.49 C 397.43 103.43 399.56 103.35 401.70 103.18 C 401.61 100.90 401.57 98.62 401.56 96.34 C 399.42 96.34 397.28 96.44 395.15 96.22 C 393.43 94.87 393.88 92.15 393.54 90.18 C 395.34 90.17 397.14 90.17 398.95 90.16 C 398.95 87.89 398.94 85.61 398.90 83.34 C 396.66 83.36 394.43 83.35 392.21 83.29 C 383.67 97.03 377.75 112.12 370.59 126.58 C 370.02 126.61 368.86 126.69 368.28 126.72 C 361.99 111.72 355.18 96.94 349.12 81.84 C 348.73 81.65 347.96 81.28 347.57 81.10 C 346.94 91.23 345.48 101.38 346.55 111.55 C 344.78 111.64 343.02 111.71 341.26 111.83 C 341.28 114.06 341.31 116.30 341.33 118.53 C 343.54 118.51 345.76 118.41 347.98 118.60 C 349.93 119.54 351.70 120.81 353.52 121.96 C 353.36 123.16 353.19 124.35 353.01 125.55 C 345.07 125.50 337.13 125.68 329.19 125.47 C 329.23 124.19 329.12 122.89 329.44 121.64 C 331.88 119.74 334.75 118.00 335.67 114.84 C 339.26 103.93 341.07 92.48 341.80 81.04 C 342.07 77.73 343.26 74.38 342.45 71.06 C 341.52 68.70 338.57 68.82 336.54 68.03 C 336.59 66.70 336.66 65.38 336.73 64.05 Z" />
<path fill="#7a2524" opacity="1.00" d=" M 232.77 81.71 C 237.32 79.32 242.78 79.11 247.70 80.27 C 255.46 82.59 259.52 91.32 258.89 98.97 C 257.05 99.02 255.20 99.04 253.36 99.06 C 252.64 95.92 249.54 96.19 246.98 96.27 C 246.06 99.44 243.00 99.29 240.32 99.08 C 239.65 95.83 236.36 96.33 233.78 96.16 C 233.48 96.83 232.88 98.18 232.58 98.86 C 231.13 99.03 229.67 99.20 228.23 99.41 C 228.47 101.93 229.01 104.41 229.73 106.84 C 228.17 107.00 226.61 107.12 225.05 107.26 C 225.01 109.46 224.95 111.66 224.89 113.86 C 227.55 113.92 230.21 114.03 232.86 114.15 C 235.10 116.48 234.56 119.74 234.53 122.67 C 236.51 122.68 238.51 122.71 240.50 122.72 C 243.57 118.64 249.40 118.00 254.16 117.36 C 253.79 113.57 256.62 109.80 260.64 110.25 C 260.45 112.06 261.23 114.32 259.64 115.68 C 254.90 120.91 249.26 126.10 242.02 127.24 C 238.32 127.42 234.31 127.89 230.99 125.88 C 223.90 122.08 219.13 114.11 219.48 106.02 C 218.86 96.25 224.46 86.68 232.77 81.71 M 242.96 86.37 C 237.37 85.22 231.37 88.85 230.10 94.46 C 236.55 94.62 243.00 94.59 249.44 94.47 C 249.17 93.48 248.89 92.48 248.62 91.50 C 249.15 91.29 250.22 90.88 250.76 90.68 C 250.73 88.54 250.74 86.40 250.74 84.26 C 247.95 84.20 244.86 83.87 242.96 86.37 Z" />
<path fill="#7a2524" opacity="1.00" d=" M 416.44 82.37 C 422.81 81.25 429.32 79.54 435.80 80.04 C 435.80 83.02 434.54 85.71 433.50 88.43 C 431.88 88.50 430.27 88.56 428.68 88.64 C 428.64 90.87 428.63 93.10 428.63 95.33 C 430.35 95.38 432.07 95.43 433.80 95.48 C 433.82 97.28 433.84 99.07 433.88 100.86 C 431.81 100.99 429.75 101.08 427.70 101.18 C 427.72 103.39 427.73 105.60 427.73 107.81 C 429.80 107.90 431.88 107.97 433.96 108.07 C 433.89 109.53 433.83 110.98 433.77 112.44 C 431.75 112.47 429.74 112.49 427.73 112.54 C 427.73 114.80 427.76 117.06 427.80 119.32 C 432.62 118.56 438.65 121.70 442.38 117.39 C 444.39 115.43 445.74 112.93 447.05 110.48 C 449.04 112.84 452.17 112.34 454.92 112.25 C 454.90 109.97 454.88 107.69 454.85 105.42 C 452.96 105.37 451.08 105.31 449.20 105.21 C 449.78 102.67 450.36 100.13 450.70 97.55 C 452.09 97.27 453.49 97.00 454.90 96.74 C 454.88 94.61 454.87 92.48 454.85 90.35 C 453.59 90.27 452.34 90.20 451.09 90.14 C 450.36 89.06 449.65 87.98 448.91 86.91 C 447.35 86.78 445.80 86.64 444.25 86.48 C 444.24 85.13 444.24 83.77 444.25 82.41 C 450.44 81.32 456.66 79.67 462.97 79.86 C 462.95 83.34 460.87 86.41 461.15 89.92 C 461.25 99.69 460.93 109.47 461.41 119.23 C 463.40 119.06 465.37 118.67 467.35 118.33 C 467.94 119.86 469.05 121.94 467.17 123.08 C 461.82 125.08 456.40 127.64 450.55 127.47 C 450.36 123.59 450.43 119.71 450.35 115.83 C 446.10 120.20 442.20 125.71 435.89 127.12 C 432.92 127.38 429.46 128.01 426.95 126.01 C 424.77 124.35 423.57 121.64 423.46 118.95 C 423.21 109.01 423.71 99.05 423.25 89.12 C 422.29 86.24 418.79 86.97 416.45 86.53 C 416.45 85.14 416.44 83.76 416.44 82.37 M 452.32 115.16 C 452.36 117.35 452.38 119.54 452.41 121.73 C 454.67 121.77 456.93 121.79 459.20 121.79 C 459.25 119.57 459.24 117.36 459.21 115.14 C 456.91 115.14 454.62 115.14 452.32 115.16 Z" />
<path fill="#7a2524" opacity="1.00" d=" M 478.01 82.93 C 484.49 78.23 493.30 79.17 500.53 81.45 C 500.61 86.18 500.61 90.92 500.61 95.65 C 498.78 95.59 496.96 95.55 495.15 95.53 C 494.89 94.10 494.27 92.55 495.17 91.22 C 496.34 89.07 495.91 86.56 495.99 84.22 C 493.76 84.27 491.53 84.27 489.31 84.22 C 489.21 84.78 489.00 85.90 488.90 86.46 C 486.37 85.85 483.84 86.52 481.87 88.21 C 483.52 95.03 491.21 97.08 496.10 101.09 C 496.15 103.37 496.17 105.66 496.15 107.96 C 498.51 107.95 500.89 108.00 503.26 108.14 C 503.22 111.19 503.77 114.45 502.24 117.25 C 499.18 123.59 492.02 127.77 485.01 127.38 C 480.35 127.57 475.82 126.22 471.49 124.64 C 471.37 119.75 471.47 114.85 471.38 109.95 C 473.09 110.06 475.02 109.35 476.58 110.24 C 477.70 113.04 478.44 116.08 480.56 118.36 C 482.58 120.18 481.96 123.02 482.15 125.44 C 484.40 125.43 486.64 125.42 488.90 125.44 C 488.92 123.78 488.96 122.12 489.01 120.47 C 491.54 119.91 494.22 117.95 494.23 115.15 C 493.37 110.71 489.13 108.37 485.56 106.29 C 485.42 104.58 485.32 102.87 485.22 101.16 C 481.85 100.86 477.49 102.04 475.40 98.56 C 472.70 96.26 473.18 92.62 473.22 89.46 C 474.58 89.34 475.94 89.23 477.31 89.12 C 477.56 87.09 477.07 84.81 478.01 82.93 Z" />
<path fill="#7a2524" opacity="1.00" d=" M 506.48 84.12 C 512.30 82.43 517.86 78.92 524.16 79.74 C 524.14 81.69 524.13 83.64 524.08 85.58 C 522.65 85.81 521.23 86.05 519.81 86.28 C 519.68 88.11 519.52 89.96 519.66 91.80 C 520.57 93.16 522.59 92.68 523.98 93.24 C 524.10 94.78 524.20 96.32 524.33 97.86 C 522.47 98.00 520.62 98.13 518.78 98.27 C 518.76 100.46 518.75 102.65 518.73 104.84 C 520.54 105.00 522.36 105.16 524.18 105.34 C 524.16 106.79 524.13 108.24 524.10 109.70 C 522.01 109.80 519.93 109.85 517.84 109.90 C 517.85 112.13 517.84 114.35 517.83 116.58 C 519.88 116.72 521.94 116.81 524.00 116.91 C 525.36 119.48 527.95 120.78 530.46 121.99 C 530.34 123.18 530.22 124.38 530.11 125.58 C 522.22 125.51 514.34 125.60 506.46 125.56 C 506.47 124.22 506.48 122.88 506.49 121.54 C 509.51 120.78 513.21 119.77 513.37 115.99 C 513.50 106.71 513.71 97.38 513.18 88.10 C 511.10 88.23 509.02 88.40 506.95 88.56 C 506.73 87.08 506.58 85.60 506.48 84.12 Z" />
<path fill="#7a2524" opacity="1.00" d=" M 546.44 81.62 C 553.86 78.50 562.62 79.03 569.92 82.24 C 571.41 82.59 571.10 84.30 570.29 85.16 C 568.30 87.83 569.22 91.46 571.45 93.68 C 567.21 94.28 564.00 90.51 560.99 88.07 C 558.98 86.86 558.82 84.48 558.44 82.41 C 556.40 82.44 554.37 82.42 552.35 82.36 C 552.15 83.73 551.96 85.11 551.77 86.48 C 546.18 87.55 544.24 93.49 539.62 95.99 C 540.60 101.01 540.74 106.11 539.53 111.11 C 543.84 112.72 546.55 116.64 548.90 120.38 C 554.06 120.24 559.14 118.83 564.33 119.53 C 564.50 115.13 566.78 110.02 571.90 110.13 C 571.84 112.08 572.65 114.50 570.92 115.96 C 566.36 120.98 561.05 126.17 554.08 127.25 C 549.92 127.51 545.39 127.75 541.77 125.31 C 535.02 121.52 531.23 113.60 531.63 105.99 C 531.23 95.88 537.58 86.18 546.44 81.62 Z" />
<path fill="#7a2524" opacity="1.00" d=" M 259.66 80.65 C 265.34 80.60 271.02 80.55 276.70 80.65 C 276.42 83.54 275.23 86.36 275.82 89.30 C 274.57 89.32 273.33 89.34 272.09 89.35 C 272.05 91.63 272.02 93.91 272.01 96.19 C 274.41 96.36 276.99 95.84 279.28 96.72 C 280.05 98.07 280.61 99.53 281.25 100.94 C 279.37 101.02 277.48 101.08 275.60 101.14 C 275.60 103.43 275.63 105.71 275.70 108.00 C 278.46 107.97 281.55 108.43 283.72 106.31 C 284.11 108.10 284.55 109.88 284.99 111.66 C 283.33 111.66 281.68 111.65 280.03 111.67 C 280.03 113.95 280.03 116.24 280.02 118.53 C 282.28 118.52 284.54 118.49 286.80 118.43 C 285.83 109.58 290.37 101.63 292.50 93.31 C 293.91 92.31 295.83 92.78 297.47 92.49 C 297.38 90.41 297.33 88.32 297.35 86.24 C 293.76 85.86 290.16 85.65 286.58 85.19 C 286.41 83.78 286.27 82.37 286.14 80.96 C 293.38 80.35 300.71 80.41 307.95 80.92 C 309.24 84.93 304.70 85.50 302.56 87.63 C 300.30 90.28 299.24 93.69 298.06 96.91 C 293.41 110.28 288.38 123.52 283.66 136.87 C 281.48 143.76 274.14 148.31 267.01 147.41 C 264.56 144.11 261.76 141.10 259.20 137.88 C 260.50 136.36 262.20 135.31 264.00 134.49 C 266.57 136.91 270.09 138.92 270.79 142.67 C 272.97 142.75 275.15 142.76 277.34 142.74 C 276.28 136.75 280.05 131.67 280.98 125.98 C 276.61 113.74 271.40 101.74 266.35 89.74 C 265.30 86.66 262.12 85.50 259.43 84.25 C 259.49 83.35 259.60 81.55 259.66 80.65 Z" />
<path fill="#7a2524" opacity="1.00" d=" M 272.10 159.07 C 275.43 159.94 273.36 164.55 273.91 167.08 C 275.53 165.71 277.15 164.23 279.28 163.71 C 278.49 165.42 277.24 166.84 276.02 168.26 C 277.33 170.14 279.30 171.77 279.42 174.23 C 277.08 173.52 275.67 171.49 274.14 169.75 C 273.74 171.40 274.32 173.88 272.09 174.28 C 271.83 169.21 271.79 164.13 272.10 159.07 Z" />
<path fill="#7a2524" opacity="1.00" d=" M 152.18 161.34 C 152.63 160.95 153.52 160.15 153.97 159.75 C 154.36 163.66 154.21 167.59 154.21 171.51 C 156.22 171.70 158.24 171.99 160.05 172.94 C 157.68 174.45 154.86 173.96 152.23 173.80 C 152.09 169.65 151.93 165.49 152.18 161.34 Z" />
<path fill="#7a2524" opacity="1.00" d=" M 160.61 160.82 C 161.29 160.58 161.97 160.34 162.66 160.11 C 162.29 164.73 163.20 169.35 162.75 173.99 C 162.29 173.89 161.38 173.70 160.92 173.60 C 160.25 169.36 161.10 165.07 160.61 160.82 Z" />
<path fill="#7a2524" opacity="1.00" d=" M 227.20 160.06 C 228.96 159.49 229.69 162.41 227.89 162.76 C 226.13 163.36 225.45 160.43 227.20 160.06 Z" />
<path fill="#7a2524" opacity="1.00" d=" M 340.17 160.52 C 341.09 159.65 343.11 160.35 342.75 161.77 C 342.20 163.81 338.41 162.15 340.17 160.52 Z" />
<path fill="#7a2524" opacity="1.00" d=" M 368.88 159.70 C 369.44 159.70 370.55 159.69 371.10 159.69 C 371.06 164.52 371.18 169.35 370.98 174.18 C 370.55 174.02 369.69 173.69 369.26 173.52 C 368.46 168.97 369.11 164.30 368.88 159.70 Z" />
<path fill="#7a2524" opacity="1.00" d=" M 374.21 160.35 C 374.81 160.36 376.02 160.37 376.62 160.38 C 376.58 160.90 376.49 161.95 376.45 162.48 C 375.92 162.50 374.86 162.54 374.33 162.56 C 374.30 162.01 374.24 160.90 374.21 160.35 Z" />
<path fill="#7a2524" opacity="1.00" d=" M 164.68 163.93 C 168.21 164.02 167.71 168.60 168.94 171.00 C 170.47 168.49 170.41 164.61 173.62 163.59 C 173.01 167.08 171.63 170.35 170.43 173.66 C 169.86 173.71 168.72 173.80 168.14 173.85 C 166.65 170.67 165.39 167.38 164.68 163.93 Z" />
<path fill="#7a2524" opacity="1.00" d=" M 175.13 170.77 C 173.43 167.27 177.01 162.67 180.86 163.99 C 183.41 164.15 183.45 167.20 184.24 169.02 C 181.86 169.48 179.43 169.56 177.02 169.70 C 177.78 172.93 181.42 171.31 183.71 171.43 C 182.71 175.53 175.95 174.58 175.13 170.77 M 177.35 166.14 C 177.36 166.49 177.37 167.20 177.38 167.56 C 178.76 167.54 180.15 167.56 181.53 167.59 C 181.53 167.22 181.52 166.49 181.51 166.13 C 180.12 166.11 178.73 166.12 177.35 166.14 Z" />
<path fill="#7a2524" opacity="1.00" d=" M 190.64 164.26 C 194.12 164.09 197.61 164.59 201.08 164.14 C 202.59 163.75 204.18 164.98 204.29 166.49 C 204.53 168.86 204.40 171.25 204.42 173.63 C 203.92 173.67 202.92 173.74 202.43 173.78 C 202.30 171.15 202.18 168.52 201.84 165.91 C 197.36 165.78 198.38 170.70 198.37 173.70 C 197.91 173.72 196.97 173.77 196.50 173.79 C 196.44 171.23 196.37 168.68 196.14 166.14 C 195.33 166.19 193.70 166.30 192.89 166.35 C 191.79 168.84 193.86 173.14 190.77 174.21 C 190.49 170.90 190.55 167.57 190.64 164.26 Z" />
<path fill="#7a2524" opacity="1.00" d=" M 207.27 164.36 C 207.66 164.14 208.43 163.70 208.81 163.48 C 209.06 166.23 209.15 168.99 209.41 171.73 C 210.54 171.68 211.68 171.62 212.82 171.56 C 213.46 169.16 213.40 166.65 213.44 164.19 C 213.96 164.20 215.01 164.21 215.54 164.22 C 215.45 167.29 215.42 170.36 215.54 173.43 C 213.46 173.49 211.40 173.89 209.33 173.77 C 205.95 172.13 206.74 167.38 207.27 164.36 Z" />
<path fill="#7a2524" opacity="1.00" d=" M 218.26 165.41 C 219.08 163.32 221.74 163.88 223.46 164.27 C 223.56 164.80 223.76 165.86 223.86 166.39 C 222.46 166.31 221.05 166.26 219.65 166.28 C 221.06 167.97 224.01 168.61 224.32 171.01 C 223.86 174.75 218.43 175.00 217.00 171.74 C 218.83 171.54 220.66 171.62 222.50 171.61 C 221.10 169.56 216.56 168.47 218.26 165.41 Z" />
<path fill="#7a2524" opacity="1.00" d=" M 226.49 164.17 C 227.03 164.15 228.11 164.11 228.65 164.09 C 228.71 167.34 228.72 170.59 228.64 173.85 C 228.12 173.82 227.09 173.77 226.57 173.74 C 226.59 170.55 226.54 167.36 226.49 164.17 Z" />
<path fill="#7a2524" opacity="1.00" d=" M 232.09 165.10 C 233.84 163.27 236.39 163.91 238.55 164.43 C 238.58 164.93 238.62 165.95 238.65 166.46 C 236.87 166.33 235.10 166.25 233.32 166.29 C 233.27 168.05 233.29 169.81 233.39 171.57 C 235.30 171.57 237.22 171.49 239.14 171.48 C 238.01 174.50 233.43 174.92 231.72 172.23 C 230.07 170.15 230.68 167.11 232.09 165.10 Z" />
<path fill="#7a2524" opacity="1.00" d=" M 244.59 164.45 C 248.38 164.03 252.18 164.57 255.96 164.12 C 257.24 163.89 258.34 165.26 258.40 166.43 C 258.63 168.84 258.55 171.26 258.59 173.68 C 258.05 173.69 256.96 173.72 256.42 173.73 C 256.39 171.18 256.33 168.62 256.11 166.08 C 255.34 166.17 253.80 166.35 253.04 166.44 C 252.66 168.84 252.56 171.27 252.48 173.69 C 251.99 173.69 251.01 173.69 250.52 173.68 C 250.50 171.49 250.63 169.29 250.36 167.11 C 249.86 165.50 247.50 165.79 246.91 167.22 C 246.55 169.36 246.64 171.55 246.55 173.72 C 246.05 173.70 245.06 173.66 244.57 173.64 C 244.61 170.57 244.64 167.51 244.59 164.45 Z" />
<path fill="#7a2524" opacity="1.00" d=" M 260.82 166.44 C 261.71 162.84 265.78 163.89 268.42 164.51 C 268.75 167.51 268.83 170.52 268.81 173.53 C 265.90 173.57 261.23 175.15 260.57 170.98 C 260.13 167.20 265.16 168.17 267.19 166.30 C 265.06 166.16 262.94 166.34 260.82 166.44 M 263.31 169.49 C 263.25 170.06 263.11 171.22 263.05 171.79 C 264.25 171.68 265.46 171.57 266.66 171.47 C 266.65 170.98 266.61 170.00 266.59 169.51 C 265.49 169.50 264.40 169.49 263.31 169.49 Z" />
<path fill="#7a2524" opacity="1.00" d=" M 285.01 173.96 C 279.38 174.02 279.27 163.79 285.01 163.86 C 288.28 163.16 289.87 166.62 289.63 169.36 C 287.32 169.47 285.02 169.50 282.71 169.55 C 283.68 172.72 287.27 171.44 289.67 171.28 C 288.75 173.16 287.27 174.71 285.01 173.96 M 283.36 166.05 C 283.37 166.47 283.40 167.31 283.41 167.73 C 284.96 167.43 286.90 167.82 287.97 166.39 C 286.44 166.21 284.90 166.11 283.36 166.05 Z" />
<path fill="#7a2524" opacity="1.00" d=" M 291.44 164.64 C 293.10 164.05 294.85 163.79 296.61 164.10 C 296.79 164.66 297.14 165.78 297.32 166.33 C 295.94 166.33 294.56 166.36 293.20 166.48 C 294.74 168.16 298.36 169.05 297.54 171.93 C 296.26 175.03 291.58 174.47 290.64 171.41 C 292.43 171.51 294.25 171.78 296.03 171.36 C 293.82 169.59 290.46 168.06 291.44 164.64 Z" />
<path fill="#7a2524" opacity="1.00" d=" M 304.14 164.35 C 307.78 164.00 311.43 164.70 315.05 164.11 C 316.35 163.81 317.66 164.86 317.90 166.14 C 318.23 168.76 318.08 171.42 318.05 174.06 C 317.61 173.93 316.75 173.67 316.32 173.54 C 315.88 171.07 315.92 168.55 315.74 166.06 C 315.02 166.12 313.56 166.24 312.83 166.30 C 312.12 168.68 312.17 171.18 312.24 173.64 C 311.79 173.69 310.89 173.78 310.44 173.83 C 310.32 171.24 310.21 168.66 309.88 166.10 C 308.74 166.21 307.60 166.34 306.47 166.47 C 306.18 168.90 306.04 171.34 305.88 173.78 C 305.46 173.77 304.62 173.77 304.20 173.77 C 304.14 170.63 304.15 167.49 304.14 164.35 Z" />
<path fill="#7a2524" opacity="1.00" d=" M 320.96 164.38 C 321.41 164.26 322.31 164.02 322.76 163.91 C 322.95 166.64 323.13 169.38 323.74 172.07 C 328.12 171.99 327.06 167.32 327.43 164.38 C 327.89 164.23 328.83 163.92 329.30 163.76 C 329.43 166.94 329.37 170.13 329.34 173.31 C 326.72 173.23 323.51 174.85 321.41 172.59 C 320.29 170.02 320.69 167.08 320.96 164.38 Z" />
<path fill="#7a2524" opacity="1.00" d=" M 331.41 164.98 C 333.30 163.85 335.40 163.74 337.47 164.40 C 337.51 164.87 337.60 165.82 337.65 166.29 C 336.28 166.27 334.91 166.28 333.55 166.34 C 334.80 167.56 336.24 168.55 337.68 169.54 C 337.71 170.59 337.75 171.63 337.79 172.68 C 335.54 174.44 331.90 174.63 330.89 171.46 C 332.71 171.51 334.52 171.62 336.34 171.61 C 334.39 169.54 330.87 168.42 331.41 164.98 Z" />
<path fill="#7a2524" opacity="1.00" d=" M 340.18 164.38 C 340.69 164.23 341.72 163.94 342.23 163.80 C 342.20 167.01 342.63 170.29 342.02 173.47 C 341.59 173.62 340.74 173.93 340.31 174.08 C 340.04 170.87 339.41 167.56 340.18 164.38 Z" />
<path fill="#7a2524" opacity="1.00" d=" M 345.35 165.45 C 346.92 163.60 349.52 163.72 351.70 164.13 C 351.79 164.73 351.99 165.92 352.09 166.52 C 350.45 166.35 348.80 166.22 347.15 166.18 C 346.63 168.02 346.70 169.88 347.37 171.67 C 349.06 171.59 350.75 171.44 352.45 171.36 C 351.87 173.66 349.46 174.71 347.32 173.79 C 343.91 172.67 343.83 168.11 345.35 165.45 Z" />
<path fill="#7a2524" opacity="1.00" d=" M 358.46 164.50 C 360.79 164.11 364.12 162.82 365.65 165.39 C 366.47 168.01 366.02 170.80 365.95 173.49 C 363.08 173.76 358.37 174.92 357.63 171.01 C 356.94 166.81 362.82 168.77 364.11 166.05 C 362.12 166.10 360.16 166.35 358.21 166.64 C 358.27 166.11 358.40 165.03 358.46 164.50 M 359.83 171.75 C 361.12 171.70 362.41 171.63 363.70 171.57 C 363.70 170.95 363.69 169.72 363.69 169.10 C 362.04 169.40 359.97 169.63 359.83 171.75 Z" />
<path fill="#7a2524" opacity="1.00" d=" M 374.34 164.06 C 374.87 164.10 375.94 164.18 376.47 164.21 C 376.39 167.37 376.39 170.53 376.39 173.69 C 375.89 173.72 374.89 173.78 374.38 173.81 C 374.30 170.56 374.33 167.31 374.34 164.06 Z" />
<path fill="#7a2524" opacity="1.00" d=" M 378.41 163.52 C 381.24 164.67 381.45 168.12 382.93 170.45 C 384.20 168.14 383.93 163.85 387.36 163.76 C 386.38 167.18 385.18 170.53 383.77 173.79 C 383.18 173.76 382.00 173.69 381.41 173.66 C 380.30 170.31 378.62 167.09 378.41 163.52 Z" />
<path fill="#7a2524" opacity="1.00" d=" M 389.83 173.14 C 387.57 170.48 387.75 165.52 391.21 163.93 C 392.95 163.69 394.66 164.23 396.36 164.54 C 396.71 166.12 397.06 167.69 397.40 169.27 C 394.89 169.43 392.38 169.45 389.89 169.62 C 391.57 172.36 394.64 171.71 397.37 171.49 C 395.97 174.36 392.35 174.58 389.83 173.14 M 390.85 166.07 C 391.08 168.12 393.21 167.50 394.66 167.75 C 394.69 167.35 394.73 166.56 394.76 166.16 C 393.45 166.12 392.15 166.09 390.85 166.07 Z" />
</g>
</svg>
