<?xml version="1.0" encoding="UTF-8" ?>
<!DOCTYPE svg PUBLIC "-//W3C//DTD SVG 1.1//EN" "http://www.w3.org/Graphics/SVG/1.1/DTD/svg11.dtd">
<svg width="580pt" height="207pt" viewBox="0 0 580 207" version="1.1" xmlns="http://www.w3.org/2000/svg">
<g id="#ffffffff">
</g>
<g id="#7a2524ff">
<path fill="#7a2524" opacity="1.00" d=" M 158.65 1.33 C 159.83 1.20 161.02 1.09 162.20 0.97 C 162.36 6.73 163.66 12.87 167.93 17.04 C 177.23 26.46 187.29 36.76 189.63 50.35 C 191.11 56.82 189.42 63.36 189.15 69.83 C 190.20 74.84 191.87 79.81 191.65 85.01 C 191.41 91.84 189.74 98.63 186.96 104.87 C 186.52 106.28 185.29 107.05 183.91 107.35 C 186.08 100.74 189.01 94.15 188.69 87.02 C 189.25 78.91 186.10 70.47 179.50 65.49 C 173.89 61.41 168.57 56.76 162.33 53.65 C 162.20 72.53 162.23 91.41 162.32 110.29 C 161.31 110.57 160.30 110.85 159.29 111.14 C 159.32 114.14 159.31 117.13 159.32 120.13 C 157.43 120.77 155.49 121.26 153.51 121.54 C 153.21 123.16 153.27 124.95 152.32 126.37 C 147.62 130.02 141.28 131.57 135.45 130.26 C 132.68 129.16 129.87 127.37 128.79 124.44 C 127.57 121.62 127.75 118.50 127.77 115.50 C 123.14 120.16 118.36 125.30 111.70 126.87 C 107.07 127.77 101.81 127.92 97.72 125.20 C 92.91 121.97 89.00 117.12 87.70 111.39 C 86.46 104.97 87.10 98.06 90.51 92.37 C 93.96 86.29 99.62 80.45 106.95 79.77 C 110.61 79.54 114.53 79.34 117.87 81.16 C 124.36 84.48 127.24 92.22 127.19 99.16 C 124.67 99.17 122.18 98.85 119.74 98.24 C 116.90 97.43 114.18 99.32 111.37 98.95 C 109.37 97.22 106.34 96.18 104.00 97.89 C 101.81 99.70 98.88 98.92 96.28 99.09 C 96.31 100.85 96.33 102.62 96.33 104.39 C 94.91 104.42 93.48 104.44 92.05 104.45 C 92.05 106.81 92.03 109.17 92.00 111.53 C 94.20 111.51 96.40 111.48 98.61 111.47 C 99.51 112.61 100.42 113.75 101.35 114.88 C 98.18 116.34 99.12 119.96 99.06 122.76 C 101.22 122.72 103.39 122.71 105.55 122.76 C 105.66 121.90 105.88 120.17 105.98 119.31 C 109.28 120.06 112.51 121.18 115.92 121.37 C 116.63 120.44 117.35 119.50 118.07 118.57 C 119.39 118.56 120.71 118.55 122.04 118.53 C 121.89 114.80 123.30 110.57 127.56 110.04 C 127.74 111.81 127.88 113.60 128.06 115.38 C 130.68 107.98 136.75 102.05 143.95 99.08 C 148.72 97.12 154.16 97.70 158.78 99.79 C 158.72 66.97 158.94 34.14 158.65 1.33 M 162.18 25.46 C 162.64 31.90 165.00 38.12 168.54 43.49 C 171.41 47.85 175.47 51.20 178.88 55.11 C 181.77 58.24 184.08 61.84 186.72 65.18 C 187.01 59.51 187.07 53.60 184.57 48.36 C 179.97 38.48 171.57 30.76 162.18 25.46 M 112.12 85.24 C 110.17 87.10 107.29 85.89 104.94 86.70 C 101.49 87.99 99.07 91.11 97.77 94.46 C 104.30 94.60 110.84 94.60 117.37 94.51 C 118.70 91.23 119.11 87.72 118.83 84.21 C 116.60 84.44 113.94 83.59 112.12 85.24 Z" />
<path fill="#7a2524" opacity="1.00" d=" M 209.60 58.41 C 210.96 57.79 212.45 57.92 213.89 58.14 C 213.23 61.64 211.52 64.88 211.45 68.49 C 209.50 68.51 207.56 68.52 205.62 68.57 C 205.61 70.83 205.61 73.09 205.63 75.35 C 207.66 75.39 209.70 75.41 211.73 75.44 C 211.74 77.78 211.73 80.11 211.71 82.45 C 209.66 82.48 207.62 82.51 205.58 82.57 C 205.58 84.79 205.59 87.01 205.62 89.24 C 207.64 89.27 209.67 89.29 211.70 89.34 C 211.71 91.67 211.74 94.01 211.78 96.34 C 209.72 96.35 207.65 96.36 205.59 96.41 C 205.57 98.72 205.57 101.04 205.59 103.36 C 207.65 103.38 209.70 103.41 211.76 103.45 C 211.75 105.27 211.73 107.09 211.74 108.92 C 209.37 109.02 206.99 109.07 204.62 109.13 C 204.66 111.34 204.67 113.55 204.68 115.76 C 207.01 115.85 209.35 115.92 211.68 116.09 C 212.29 119.27 214.93 120.80 217.88 121.44 C 217.89 122.82 217.90 124.21 217.90 125.60 C 210.02 125.53 202.14 125.56 194.26 125.57 C 194.26 124.20 194.27 122.84 194.27 121.47 C 196.10 120.90 197.93 120.31 199.75 119.70 C 202.21 114.46 200.97 108.57 201.20 103.00 C 201.00 91.62 201.70 80.19 200.78 68.84 C 198.68 68.57 196.56 68.46 194.44 68.37 C 194.36 66.99 194.28 65.62 194.20 64.25 C 199.19 61.93 204.45 60.29 209.60 58.41 Z" />
<path fill="#7a2524" opacity="1.00" d=" M 7.90 64.07 C 13.48 63.92 19.07 63.89 24.64 64.22 C 26.20 67.76 27.71 71.32 29.07 74.95 C 26.09 76.79 26.13 80.13 26.30 83.25 C 28.53 83.31 30.75 83.39 32.98 83.52 C 33.81 85.65 34.69 87.77 35.57 89.89 C 33.96 90.06 32.35 90.23 30.74 90.39 C 30.69 92.66 30.66 94.92 30.63 97.19 C 33.34 97.05 36.04 96.86 38.73 96.50 C 39.57 98.85 40.46 101.19 41.27 103.56 C 39.17 103.63 37.07 103.69 34.97 103.77 C 34.93 106.02 34.91 108.26 34.91 110.52 C 37.09 110.57 39.27 110.62 41.45 110.64 C 41.64 108.88 41.82 107.12 42.03 105.37 C 42.90 106.67 43.79 107.97 44.69 109.26 C 51.45 94.17 59.20 79.54 65.20 64.12 C 70.52 63.92 75.85 63.95 81.17 64.02 C 81.20 65.30 81.23 66.59 81.26 67.87 C 76.73 68.92 73.61 72.46 70.18 75.31 C 69.85 76.96 69.81 78.65 69.68 80.33 C 71.46 80.45 73.25 80.54 75.04 80.62 C 75.28 84.36 75.53 88.11 75.93 91.84 C 73.98 92.00 72.03 92.13 70.07 92.28 C 69.96 94.45 69.85 96.62 69.75 98.79 C 72.24 98.91 74.73 99.00 77.21 99.17 C 77.20 102.05 77.30 104.93 77.76 107.77 C 76.30 107.95 74.83 108.12 73.37 108.29 C 73.39 110.39 73.40 112.48 73.38 114.58 C 74.98 114.82 76.57 115.05 78.16 115.30 C 78.86 119.19 82.37 120.72 85.80 121.62 C 85.81 122.92 85.83 124.23 85.85 125.54 C 77.63 125.59 69.40 125.56 61.18 125.54 C 60.98 124.38 60.78 123.22 60.58 122.06 C 63.19 120.67 67.75 119.93 67.32 116.05 C 66.13 104.95 65.21 93.82 64.03 82.71 C 54.70 96.36 49.19 112.08 41.55 126.65 C 40.99 126.67 39.87 126.71 39.31 126.72 C 34.64 115.76 30.01 104.78 25.27 93.85 C 23.27 89.39 21.77 84.67 19.03 80.58 C 17.80 90.90 16.88 101.31 17.47 111.71 C 13.31 112.12 14.30 116.39 14.19 119.36 C 17.81 119.10 21.38 119.75 24.58 121.48 C 24.52 122.80 24.47 124.12 24.42 125.44 C 16.28 125.59 8.13 125.74 0.00 125.32 L 0.00 122.29 C 2.51 120.09 5.60 118.21 6.77 114.90 C 11.25 103.17 12.07 90.51 13.48 78.15 C 13.74 75.46 14.18 72.64 13.18 70.04 C 11.60 69.13 9.79 68.73 8.05 68.23 C 7.99 66.84 7.95 65.46 7.90 64.07 Z" />
<path fill="#7a2524" opacity="1.00" d=" M 232.77 81.71 C 237.32 79.32 242.78 79.11 247.70 80.27 C 255.46 82.59 259.52 91.32 258.89 98.97 C 257.05 99.02 255.20 99.04 253.36 99.06 C 252.64 95.92 249.54 96.19 246.98 96.27 C 246.06 99.44 243.00 99.29 240.32 99.08 C 239.65 95.83 236.36 96.33 233.78 96.16 C 233.48 96.83 232.88 98.18 232.58 98.86 C 231.13 99.03 229.67 99.20 228.23 99.41 C 228.47 101.93 229.01 104.41 229.73 106.84 C 228.17 107.00 226.61 107.12 225.05 107.26 C 225.01 109.46 224.95 111.66 224.89 113.86 C 227.55 113.92 230.21 114.03 232.86 114.15 C 235.10 116.48 234.56 119.74 234.53 122.67 C 236.51 122.68 238.51 122.71 240.50 122.72 C 243.57 118.64 249.40 118.00 254.16 117.36 C 253.79 113.57 256.62 109.80 260.64 110.25 C 260.45 112.06 261.23 114.32 259.64 115.68 C 254.90 120.91 249.26 126.10 242.02 127.24 C 238.32 127.42 234.31 127.89 230.99 125.88 C 223.90 122.08 219.13 114.11 219.48 106.02 C 218.86 96.25 224.46 86.68 232.77 81.71 M 242.96 86.37 C 237.37 85.22 231.37 88.85 230.10 94.46 C 236.55 94.62 243.00 94.59 249.44 94.47 C 249.17 93.48 248.89 92.48 248.62 91.50 C 249.15 91.29 250.22 90.88 250.76 90.68 C 250.73 88.54 250.74 86.40 250.74 84.26 C 247.95 84.20 244.86 83.87 242.96 86.37 Z" />
<path fill="#7a2524" opacity="1.00" d=" M 259.66 80.65 C 265.34 80.60 271.02 80.55 276.70 80.65 C 276.42 83.54 275.23 86.36 275.82 89.30 C 274.57 89.32 273.33 89.34 272.09 89.35 C 272.05 91.63 272.02 93.91 272.01 96.19 C 274.41 96.36 276.99 95.84 279.28 96.72 C 280.05 98.07 280.61 99.53 281.25 100.94 C 279.37 101.02 277.48 101.08 275.60 101.14 C 275.60 103.43 275.63 105.71 275.70 108.00 C 278.46 107.97 281.55 108.43 283.72 106.31 C 284.11 108.10 284.55 109.88 284.99 111.66 C 283.33 111.66 281.68 111.65 280.03 111.67 C 280.03 113.95 280.03 116.24 280.02 118.53 C 282.28 118.52 284.54 118.49 286.80 118.43 C 285.83 109.58 290.37 101.63 292.50 93.31 C 293.91 92.31 295.83 92.78 297.47 92.49 C 297.38 90.41 297.33 88.32 297.35 86.24 C 293.76 85.86 290.16 85.65 286.58 85.19 C 286.41 83.78 286.27 82.37 286.14 80.96 C 293.38 80.35 300.71 80.41 307.95 80.92 C 309.24 84.93 304.70 85.50 302.56 87.63 C 300.30 90.28 299.24 93.69 298.06 96.91 C 293.41 110.28 288.38 123.52 283.66 136.87 C 281.48 143.76 274.14 148.31 267.01 147.41 C 264.56 144.11 261.76 141.10 259.20 137.88 C 260.50 136.36 262.20 135.31 264.00 134.49 C 266.57 136.91 270.09 138.92 270.79 142.67 C 272.97 142.75 275.15 142.76 277.34 142.74 C 276.28 136.75 280.05 131.67 280.98 125.98 C 276.61 113.74 271.40 101.74 266.35 89.74 C 265.30 86.66 262.12 85.50 259.43 84.25 C 259.49 83.35 259.60 81.55 259.66 80.65 Z" />
</g>
</svg>
