<?xml version="1.0" encoding="UTF-8" ?>
<!DOCTYPE svg PUBLIC "-//W3C//DTD SVG 1.1//EN" "http://www.w3.org/Graphics/SVG/1.1/DTD/svg11.dtd">
<svg width="268pt" height="143pt" viewBox="0 0 268 143" version="1.1" xmlns="http://www.w3.org/2000/svg">
<g id="#ffffffff">
</g>
<g id="#ac3a2bff">
<path fill="#ac3a2b" opacity="1.00" d=" M 203.48 60.53 C 205.67 60.27 207.88 60.42 210.08 60.46 C 209.03 62.19 207.31 63.78 207.63 65.98 C 207.15 68.34 209.59 69.33 211.02 70.65 C 208.26 70.95 205.15 71.99 202.59 70.46 C 199.19 68.04 199.91 62.47 203.48 60.53 Z" />
<path fill="#ac3a2b" opacity="1.00" d=" M 24.74 63.97 C 26.77 63.98 28.81 63.99 30.85 64.04 C 31.02 65.52 31.19 67.00 31.36 68.48 C 33.40 68.41 35.45 68.41 37.49 68.48 C 37.59 66.97 37.68 65.45 37.79 63.94 C 39.10 63.99 40.41 64.06 41.72 64.16 C 43.91 69.86 46.59 75.35 48.68 81.09 C 47.20 81.42 45.71 81.71 44.23 82.03 C 44.22 84.09 44.18 86.15 44.14 88.21 C 46.77 88.40 49.44 88.40 51.97 87.58 C 52.61 89.63 53.32 91.65 54.00 93.68 C 52.13 93.82 50.25 93.98 48.37 94.15 C 48.45 96.36 48.44 98.57 48.35 100.78 C 50.49 100.76 52.62 100.76 54.76 100.78 C 55.16 99.76 55.57 98.75 55.98 97.74 C 57.30 100.47 58.45 103.28 59.40 106.16 C 57.30 106.21 55.20 106.22 53.10 106.25 C 53.00 108.56 52.90 110.87 52.84 113.18 C 55.15 113.10 57.46 112.99 59.77 112.87 C 59.79 111.36 59.81 109.85 59.82 108.35 C 60.35 108.38 61.40 108.44 61.92 108.47 C 68.54 93.60 76.12 79.17 82.15 64.03 C 82.70 64.05 83.81 64.08 84.36 64.10 C 84.41 65.51 84.47 66.92 84.54 68.34 C 86.73 68.33 88.93 68.32 91.12 68.28 C 91.19 66.84 91.26 65.40 91.32 63.96 C 93.77 63.96 96.22 63.98 98.67 64.13 C 98.61 65.52 98.56 66.91 98.51 68.30 C 96.37 68.76 94.13 69.12 92.20 70.22 C 91.23 71.96 91.60 74.07 91.56 75.98 C 92.65 86.22 93.52 96.48 94.51 106.73 C 95.21 110.88 94.93 115.33 96.90 119.15 C 98.68 120.41 100.89 120.77 102.93 121.41 C 102.93 122.81 102.91 124.21 102.89 125.61 C 94.60 125.65 86.30 125.55 78.01 125.67 C 77.97 124.23 77.94 122.79 77.95 121.35 C 80.53 120.88 82.65 119.42 84.64 117.81 C 86.50 117.44 88.40 117.51 90.28 117.38 C 90.31 115.21 90.33 113.05 90.35 110.89 C 87.99 110.84 85.62 110.80 83.26 110.73 C 83.26 108.30 83.25 105.87 83.24 103.44 C 85.39 103.38 87.53 103.29 89.66 103.10 C 89.56 100.86 89.53 98.62 89.57 96.38 C 87.11 96.39 84.65 96.37 82.21 96.09 C 81.95 94.11 81.69 92.12 81.55 90.13 C 83.35 90.06 85.16 90.00 86.96 89.92 C 86.93 87.72 86.90 85.52 86.84 83.32 C 84.29 83.84 80.42 82.01 79.19 85.12 C 71.23 98.47 65.37 112.90 58.57 126.85 C 57.58 126.53 55.96 126.84 55.63 125.52 C 49.65 110.88 42.85 96.57 37.09 81.83 C 36.70 81.67 35.92 81.34 35.53 81.18 C 35.07 91.09 33.60 100.98 34.45 110.94 C 33.14 112.24 30.96 111.62 29.28 112.07 C 29.32 114.22 29.35 116.37 29.36 118.52 C 33.14 118.25 37.21 118.16 40.16 120.97 C 42.17 121.80 41.12 124.00 41.10 125.63 C 33.11 125.56 25.12 125.72 17.13 125.54 C 17.03 124.04 16.42 122.03 18.06 121.11 C 20.33 119.43 22.79 117.67 23.64 114.82 C 27.26 103.61 29.07 91.87 29.78 80.14 C 30.04 77.03 31.38 73.82 30.27 70.74 C 28.88 68.98 26.51 68.71 24.51 68.06 C 24.58 66.69 24.65 65.33 24.74 63.97 Z" />
<path fill="#ac3a2b" opacity="1.00" d=" M 104.38 82.26 C 110.81 81.23 117.33 79.49 123.87 80.02 C 123.86 83.02 122.67 85.76 121.57 88.49 C 119.96 88.56 118.35 88.63 116.75 88.71 C 116.72 90.89 116.71 93.07 116.71 95.26 C 118.42 95.32 120.13 95.36 121.84 95.43 C 121.96 97.24 122.08 99.05 122.18 100.87 C 120.05 101.00 117.92 101.10 115.80 101.20 C 115.81 103.39 115.83 105.59 115.84 107.79 C 117.94 107.88 120.05 107.96 122.16 108.04 C 122.12 109.47 122.08 110.90 122.04 112.33 C 120.03 112.42 118.02 112.47 116.01 112.47 C 115.88 114.72 115.84 116.97 115.86 119.22 C 119.65 119.02 123.47 119.91 127.24 119.48 C 131.01 117.62 133.31 113.86 135.07 110.20 C 136.71 113.01 140.23 112.12 142.92 112.17 C 142.88 109.92 142.84 107.68 142.80 105.43 C 140.93 105.40 139.05 105.33 137.18 105.22 C 137.74 102.66 138.28 100.09 138.64 97.49 C 140.05 97.21 141.47 96.94 142.90 96.68 C 142.88 94.60 142.85 92.52 142.82 90.44 C 140.41 90.57 138.00 90.03 137.35 87.36 C 135.64 87.05 133.93 86.75 132.22 86.48 C 132.20 85.09 132.20 83.71 132.22 82.32 C 138.45 81.26 144.70 79.63 151.04 79.84 C 151.01 83.33 148.95 86.42 149.17 89.92 C 149.27 99.59 149.02 109.27 149.39 118.94 C 151.27 118.80 153.15 118.50 155.04 118.58 C 157.20 119.44 156.62 122.94 154.52 123.48 C 149.28 125.20 144.00 128.12 138.32 127.19 C 138.38 123.62 138.38 120.05 138.18 116.48 C 133.79 120.48 130.04 125.85 123.88 127.18 C 120.90 127.39 117.44 128.06 114.92 126.04 C 112.42 124.20 111.31 121.03 111.36 118.02 C 111.31 109.33 111.40 100.64 111.38 91.95 C 111.36 90.47 111.36 88.89 110.38 87.67 C 108.49 86.86 106.39 86.86 104.39 86.57 C 104.39 85.14 104.38 83.70 104.38 82.26 M 140.33 115.19 C 140.39 117.36 140.41 119.53 140.41 121.70 C 142.63 121.73 144.85 121.76 147.07 121.78 C 147.16 119.57 147.17 117.36 147.14 115.16 C 144.87 115.18 142.60 115.18 140.33 115.19 Z" />
<path fill="#ac3a2b" opacity="1.00" d=" M 167.64 81.71 C 174.11 78.54 182.02 79.03 188.60 81.68 C 188.61 86.34 188.70 90.99 188.57 95.65 C 186.57 95.58 184.58 95.48 182.59 95.33 C 182.82 91.58 184.50 88.05 183.95 84.23 C 181.70 84.30 179.45 84.30 177.21 84.25 C 177.15 84.83 177.03 86.00 176.97 86.59 C 174.44 85.77 171.99 86.74 169.92 88.21 C 170.49 89.80 170.82 91.63 172.19 92.77 C 175.82 96.00 180.22 98.20 184.13 101.06 C 184.18 103.35 184.20 105.65 184.17 107.94 C 186.53 107.94 188.90 107.98 191.26 108.06 C 192.11 113.57 190.44 119.39 185.95 122.91 C 178.64 129.35 167.83 128.09 159.43 124.69 C 159.32 119.78 159.42 114.87 159.32 109.97 C 161.14 109.90 162.96 109.86 164.78 109.85 C 165.45 113.17 166.75 116.35 169.03 118.90 C 170.69 120.62 169.89 123.21 170.16 125.35 C 172.40 125.35 174.64 125.35 176.88 125.37 C 176.91 123.70 176.95 122.03 177.01 120.37 C 179.52 119.88 182.19 118.06 181.92 115.18 C 181.54 110.64 176.99 108.38 173.49 106.38 C 173.35 104.65 173.24 102.92 173.14 101.19 C 170.55 101.03 167.87 101.37 165.36 100.64 C 163.75 99.23 162.27 97.58 161.37 95.62 C 160.96 93.58 161.19 91.47 161.18 89.41 C 162.53 89.25 163.87 89.10 165.22 88.95 C 165.54 86.46 164.61 82.82 167.64 81.71 Z" />
<path fill="#ac3a2b" opacity="1.00" d=" M 194.67 84.16 C 200.21 81.88 205.98 79.08 212.15 79.72 C 212.19 81.46 212.30 83.20 212.20 84.93 C 211.31 86.35 209.25 85.91 207.86 86.42 C 207.73 88.48 207.74 90.55 207.87 92.62 C 209.28 92.70 210.70 92.78 212.11 92.88 C 212.17 94.57 212.22 96.25 212.29 97.94 C 210.49 98.04 208.70 98.14 206.91 98.25 C 206.87 100.44 206.84 102.62 206.81 104.80 C 208.60 104.93 210.39 105.06 212.18 105.21 C 212.17 106.72 212.15 108.24 212.11 109.75 C 210.10 109.88 208.09 110.00 206.08 110.13 C 206.10 112.33 206.12 114.53 206.14 116.73 C 208.05 116.75 209.97 116.76 211.89 116.79 C 213.25 119.44 216.01 120.53 218.35 122.09 C 218.35 123.29 218.30 124.48 218.20 125.68 C 210.83 125.49 203.47 125.72 196.10 125.61 C 193.85 126.00 194.43 123.32 194.46 122.00 C 195.87 120.57 198.05 120.42 199.86 119.74 C 202.22 115.52 201.28 110.60 201.42 106.00 C 201.28 100.05 201.71 94.08 201.10 88.14 C 199.06 88.28 197.02 88.46 194.98 88.64 C 194.69 87.17 194.28 85.66 194.67 84.16 Z" />
<path fill="#ac3a2b" opacity="1.00" d=" M 229.07 85.13 C 236.77 78.07 248.83 78.26 257.96 82.18 C 259.55 82.56 259.08 84.28 258.28 85.18 C 256.31 87.83 257.17 91.55 259.58 93.62 C 254.35 94.53 250.98 89.09 246.91 86.69 C 246.78 85.27 246.68 83.84 246.58 82.42 C 244.50 82.47 242.43 82.45 240.36 82.37 C 240.18 83.77 240.01 85.17 239.83 86.58 C 234.31 87.63 232.13 93.25 227.87 96.20 C 228.57 101.32 228.54 106.44 227.98 111.58 C 232.43 112.56 234.31 117.10 237.10 120.17 C 242.06 120.28 246.93 118.96 251.91 119.31 C 253.49 117.40 252.44 114.20 254.59 112.55 C 255.86 110.80 257.87 110.24 259.92 110.09 C 259.84 112.05 260.69 114.51 258.96 115.99 C 254.56 120.75 249.61 125.76 243.03 127.16 C 238.54 127.53 233.56 128.00 229.64 125.34 C 222.96 121.49 219.12 113.58 219.59 105.97 C 219.21 97.98 223.19 90.35 229.07 85.13 Z" />
</g>
</svg>
