<svg height="510pt" viewBox="0 0 510 510.87983" width="510pt" xmlns="http://www.w3.org/2000/svg"><path d="m183.945312 289.726562c-1.660156-1.660156-3.917968-2.582031-6.269531-2.558593-2.324219-.039063-4.5625.886719-6.175781 2.558593-1.6875 1.652344-2.640625 3.910157-2.648438 6.269532.03125 2.3125.949219 4.519531 2.558594 6.179687l112.375 112.375c3.503906 3.355469 9.03125 3.355469 12.535156 0 3.421876-3.445312 3.421876-9.003906 0-12.445312zm0 0"/><path d="m233.90625 414.546875 12.449219-12.445313 12.445312 12.449219-12.445312 12.445313zm0 0"/><path d="m133.980469 339.691406c-1.628907-1.691406-3.875-2.648437-6.222657-2.648437-2.347656 0-4.597656.957031-6.222656 2.648437-1.660156 1.625-2.582031 3.859375-2.5625 6.179688-.023437 2.347656.902344 4.609375 2.5625 6.269531l112.375 112.375c3.460938 3.4375 9.054688 3.417969 12.492188-.046875 3.433594-3.460938 3.414062-9.050781-.046875-12.488281zm0 0"/><path d="m171.410156 352.140625 12.445313-12.449219-12.445313-12.535156-12.445312 12.449219zm0 0"/><path d="m84.722656 413.933594-50.582031 50.582031-18.742187-18.75c-3.460938-3.347656-8.96875-3.296875-12.371094.105469-3.40625 3.40625-3.453125 8.914062-.109375 12.375l49.9375 49.9375c2.214843 2.296875 5.5 3.214844 8.585937 2.410156 3.085938-.808594 5.496094-3.21875 6.304688-6.304688.808594-3.089843-.113282-6.371093-2.410156-8.585937l-18.746094-18.742187 41.839844-41.84375c-2.488282-6.78125-3.746094-13.957032-3.707032-21.183594zm0 0"/><path d="m171.410156 462.394531c-9.359375.011719-18.332031-3.742187-24.894531-10.414062l-12.535156-12.449219c-13.769531-13.808594-13.769531-36.152344 0-49.960938l-12.445313-12.449218-6.269531 6.269531c-13.234375 13.1875-16.671875 33.308594-8.5625 50.140625 2.097656 4.566406 5 8.722656 8.5625 12.269531l24.984375 24.894531c8.257812 8.304688 19.488281 12.976563 31.203125 12.976563s22.945313-4.671875 31.207031-12.976563l6.265625-6.179687-12.535156-12.535156c-6.585937 6.6875-15.589844 10.445312-24.980469 10.414062zm0 0"/><path d="m508.535156 164.90625-162.339844-162.339844c-3.441406-3.421875-9.003906-3.421875-12.445312 0-3.414062 3.480469-3.414062 9.054688 0 12.535156l162.25 162.25c3.46875 3.445313 9.066406 3.445313 12.535156 0 1.660156-1.660156 2.582032-3.917968 2.558594-6.265624.023438-2.324219-.898438-4.554688-2.558594-6.179688zm0 0"/><path d="m322.539062 228.554688c-4.679687 3.707031-9.09375 7.503906-13.417968 11.5625l24.628906 24.628906c13.769531 13.808594 13.769531 36.15625 0 49.964844l12.445312 12.445312 6.269532-6.265625c17.230468-17.238281 17.230468-45.175781 0-62.410156zm0 0"/><path d="m327.921875 103.113281c-7.0625 49.257813-11.386719 78.917969-52.167969 119.703125l-16.949218 16.949219 12.535156 12.535156 18.714844-18.804687c.175781-.085938.261718-.175782.441406-.265625.175781-.085938.351562-.261719.527344-.441407 8.582031-8.519531 17.757812-16.425781 27.453124-23.65625 28.867188-21.894531 47.050782-23.128906 72.121094-24.894531 9.09375-.617187 19.421875-1.324219 31.78125-3.175781l45.636719-6.710938-131.265625-131.265624zm0 0"/><path d="m283.785156 364.585938 12.535156 12.535156 12.445313-12.535156-12.445313-12.445313zm0 0"/><path d="m208.925781 289.726562 12.449219 12.449219 12.535156-12.449219-12.535156-12.535156zm0 0"/><path d="m340.015625 345.871094-74.945313-74.855469-24.980468-24.984375-6.179688-6.265625c-1.6875-1.621094-3.929687-2.535156-6.269531-2.5625-2.324219.015625-4.554687.921875-6.230469 2.535156 3.421875-3.445312 3.421875-9.003906 0-12.449219l-18.75-18.722656 6.242188-6.238281c2.292968-2.21875 3.214844-5.5 2.40625-8.585937-.808594-3.085938-3.21875-5.496094-6.304688-6.304688-3.085937-.808594-6.367187.113281-8.585937 2.40625l-24.964844 24.964844c-2.230469 2.230468-3.097656 5.484375-2.28125 8.53125.816406 3.042968 3.199219 5.425781 6.246094 6.238281 3.046875.816406 6.296875-.054687 8.527343-2.289063l6.242188-6.238281 18.714844 18.714844c3.441406 3.421875 9.003906 3.421875 12.445312 0-3.417968 3.464844-3.417968 9.035156 0 12.5l112.402344 112.320313c3.5 3 8.722656 2.796874 11.984375-.460938 3.257813-3.261719 3.460937-8.484375.460937-11.984375zm0 0"/><path d="m77.820312 329.753906c2.339844 0 4.585938-.933594 6.242188-2.585937l6.25-6.242188 18.722656 18.722657c2.230469 2.230468 5.480469 3.101562 8.527344 2.28125 3.046875-.816407 5.425781-3.199219 6.242188-6.246094.816406-3.046875-.058594-6.296875-2.289063-8.527344l-18.722656-18.714844 6.234375-6.238281c2.292968-2.214844 3.21875-5.496094 2.410156-8.585937-.804688-3.085938-3.214844-5.496094-6.296875-6.308594-3.085937-.808594-6.371094.109375-8.589844 2.402344l-24.972656 24.972656c-2.523437 2.523437-3.277344 6.320312-1.910156 9.621094 1.363281 3.296874 4.582031 5.445312 8.152343 5.449218zm0 0"/><path d="m127.757812 279.816406c2.339844 0 4.585938-.933594 6.242188-2.589844l6.238281-6.238281 18.734375 18.722657c3.464844 3.34375 8.96875 3.296874 12.375-.109376 3.402344-3.402343 3.453125-8.910156.105469-12.375l-18.730469-18.722656 6.25-6.238281c3.449219-3.449219 3.453125-9.039063.007813-12.492187-3.445313-3.453126-9.039063-3.457032-12.492188-.007813l-12.480469 12.472656-12.492187 12.507813c-2.523437 2.523437-3.277344 6.320312-1.910156 9.621094 1.363281 3.296874 4.582031 5.445312 8.152343 5.449218zm0 0"/></svg>